<?xml version="1.0" encoding="utf-8"?>
<!-- Generator: Adobe Illustrator 25.2.3, SVG Export Plug-In . SVG Version: 6.00 Build 0)  -->
<svg version="1.1" id="Layer_1" xmlns="http://www.w3.org/2000/svg" xmlns:xlink="http://www.w3.org/1999/xlink" x="0px" y="0px"
	 viewBox="0 0 268 150" style="enable-background:new 0 0 268 150;" xml:space="preserve">
<style type="text/css">
	.st0{fill-rule:evenodd;clip-rule:evenodd;fill:#00A855;}
</style>
<g>
	<path class="st0" d="M165.1,114.2c-3,0-6,1-6,2.1c0,0.8,0.7,1.8,1.7,1.8c0.7,0,1.8-0.7,1.8-0.7c0,15.2-14.6,27.5-32.7,27.5
		c-18.1,0-32.7-12.3-32.7-27.5c0,0,1.2,0.7,1.8,0.7c1,0,1.7-1,1.7-1.8c0-1.1-3-2.1-6-2.1c-4.7,0-7.3,2.5-7.3,3.8
		c0,0.6,0.7,1.4,1.2,1.4c0.2,0,1.1-0.9,1.8-1.2l0,0c0.5,17.3,18,31.2,39.4,31.2c21.4,0,38.9-13.9,39.4-31.2l0,0
		c0.7,0.3,1.6,1.2,1.8,1.2c0.5,0,1.2-0.9,1.2-1.4C172.4,116.7,169.8,114.2,165.1,114.2z"/>
	<path class="st0" d="M117.7,98.3c3.2,0,5,4.6,5,8.4c0,1-0.3,1.9-1.2,1.9c-0.8,0-1.4-0.8-3.5-0.8c-2.1,0-2.5,1.1-3.9,1.1
		c-1.4,0-1.5-2.2-1.5-3.8C112.7,102.3,114.1,98.3,117.7,98.3z"/>
	<path class="st0" d="M142.2,98.3c-3.2,0-5,4.6-5,8.4c0,1,0.3,1.9,1.2,1.9c0.8,0,1.4-0.8,3.5-0.8c2.1,0,2.5,1.1,3.9,1.1
		c1.4,0,1.5-2.2,1.5-3.8C147.2,102.3,145.8,98.3,142.2,98.3z"/>
	<path class="st0" d="M152.6,10.2c0.2-1.4,1.2-2.5,2.9-2.5c1.6,0,2.7,1.1,2.9,2.5H152.6z M155.4,5.2c-4,0-6.2,3.1-6.2,6.4
		c0,3.5,2.4,6.6,6.2,6.6c1.9,0,3.8-0.7,4.9-2c0.5-0.6,0.8-1.3,0.8-1.8c0-0.2,0-0.3-0.1-0.4c-0.1-0.1-0.2-0.2-0.5-0.2h-1.9
		c-0.4,0-0.6,0.1-0.8,0.4c-0.5,0.8-1.3,1.2-2.5,1.2c-1.7,0-2.8-1.3-2.9-2.7h8c0.4,0,0.6-0.1,0.8-0.2c0.2-0.2,0.3-0.4,0.3-0.9
		c0-1.5-0.5-3.1-1.5-4.3C159.2,6,157.6,5.2,155.4,5.2z M160.5,3.4c0.2,0,0.4-0.1,0.6-0.2c0.1-0.1,0.2-0.3,0.2-0.6V1.6
		c0-0.4-0.1-0.6-0.2-0.8c-0.1-0.1-0.3-0.2-0.6-0.2c-0.2,0-0.4,0-0.7,0.1l-9.1,0.9c-0.3,0-0.4,0.1-0.5,0.2C150.1,1.9,150,2,150,2.2
		v0.6c0,0.2,0,0.3,0.1,0.4c0.1,0.1,0.3,0.2,0.5,0.2H160.5z M115.4,10.2c0.2-1.4,1.2-2.5,2.9-2.5c1.6,0,2.7,1.1,2.9,2.5H115.4z
		 M144.7,16.9c0,0.3,0.1,0.5,0.2,0.7c0.2,0.2,0.4,0.3,0.8,0.3h1.4c0.4,0,0.6-0.1,0.8-0.3c0.1-0.2,0.2-0.4,0.2-0.7v-15
		c0-0.3-0.1-0.5-0.2-0.7c-0.2-0.2-0.4-0.3-0.8-0.3h-1.4c-0.4,0-0.6,0.1-0.8,0.3c-0.1,0.2-0.2,0.4-0.2,0.7V16.9z M137.7,5.6h-0.6
		c-0.2,0-0.4,0.1-0.6,0.2c-0.1,0.1-0.2,0.3-0.2,0.6v0.8c0,0.3,0.1,0.5,0.2,0.6c0.1,0.1,0.3,0.2,0.6,0.2h0.6v5.7
		c0,1.5,0.4,2.4,1.1,3.1c0.7,0.7,1.6,1.1,3.1,1.1h1c0.2,0,0.4-0.1,0.6-0.2c0.2-0.1,0.2-0.3,0.2-0.6v-1c0-0.3-0.1-0.5-0.2-0.6
		c-0.1-0.1-0.3-0.2-0.6-0.2h-0.1c-0.6,0-1-0.2-1.3-0.4c-0.3-0.3-0.5-0.8-0.5-1.5V8h2.1c0.2,0,0.4-0.1,0.6-0.2
		c0.1-0.1,0.2-0.3,0.2-0.6V6.4c0-0.3-0.1-0.5-0.2-0.6c-0.1-0.1-0.3-0.2-0.6-0.2H141V1.9c0-0.3-0.1-0.5-0.2-0.7
		c-0.2-0.2-0.4-0.3-0.8-0.3h-1.3c-0.4,0-0.6,0.1-0.8,0.3c-0.1,0.2-0.2,0.4-0.2,0.7V5.6z M130.6,5.2c-3.1,0-5.2,1.5-5.2,3.9
		c0,0.8,0.3,1.5,0.8,2.1c0.6,0.6,1.4,1.1,2.6,1.4l2.6,0.7c0.7,0.2,1.4,0.4,1.4,1c0,1-1,1.3-2.1,1.3c-0.5,0-1.1-0.1-1.6-0.3
		c-0.3-0.2-0.6-0.4-0.8-0.7c-0.2-0.3-0.2-0.5-0.5-0.6c-0.2-0.1-0.4-0.1-0.6-0.1h-1.4c-0.3,0-0.5,0.1-0.6,0.2s-0.1,0.3-0.1,0.5
		c0,0.5,0.2,1,0.5,1.5c0.9,1.2,2.7,2.1,5,2.1c2.3,0,5.5-1,5.5-4c0-0.8-0.2-1.5-0.7-2c-0.5-0.7-1.3-1.2-2.6-1.5l-2.6-0.7
		c-1.1-0.3-1.6-0.5-1.6-1.1c0-0.6,0.6-1.2,1.9-1.2c0.8,0,1.5,0.2,2,0.7c0.4,0.4,0.3,0.6,0.6,0.8c0.2,0.1,0.4,0.1,0.7,0.1h1.3
		c0.2,0,0.4,0,0.5-0.2c0.1-0.1,0.2-0.3,0.2-0.5c0-0.6-0.4-1.4-1.1-2C133.8,5.7,132.3,5.2,130.6,5.2z M118.3,5.2
		c-4,0-6.2,3.1-6.2,6.4c0,3.5,2.4,6.6,6.2,6.6c1.9,0,3.8-0.7,4.9-2c0.5-0.6,0.8-1.3,0.8-1.8c0-0.2,0-0.3-0.1-0.4
		c-0.1-0.1-0.2-0.2-0.5-0.2h-1.8c-0.4,0-0.6,0.1-0.8,0.4c-0.5,0.8-1.3,1.2-2.5,1.2c-1.7,0-2.8-1.3-2.9-2.7h8c0.4,0,0.6-0.1,0.8-0.2
		c0.2-0.2,0.3-0.4,0.3-0.9c0-1.5-0.5-3.1-1.5-4.3C122,6,120.4,5.2,118.3,5.2z M107.8,1.2c-0.2,0.2-0.2,0.4-0.2,0.8v10.4h-0.1
		c0,0-5.7-10.2-6-10.6c-0.2-0.3-0.4-0.6-0.7-0.7c-0.3-0.2-0.6-0.3-1.2-0.3h-1.9c-0.4,0-0.7,0.2-0.9,0.4c-0.2,0.2-0.3,0.4-0.3,0.8
		v14.8c0,0.4,0.1,0.6,0.3,0.8c0.2,0.2,0.5,0.4,0.9,0.4h1.1c0.4,0,0.7-0.2,0.9-0.4c0.2-0.2,0.3-0.4,0.3-0.8V6.1h0.1
		c0,0,5.9,10.5,6.2,10.9c0.3,0.6,0.9,1,1.7,1h1.8c0.4,0,0.7-0.2,0.9-0.4c0.2-0.2,0.3-0.4,0.3-0.8V3.4h24c0.2,0,0.4-0.1,0.6-0.2
		c0.2-0.1,0.2-0.3,0.2-0.6v-1c0-0.3-0.1-0.5-0.2-0.6c-0.1-0.1-0.3-0.2-0.6-0.2h-26.1C108.3,0.9,108,1,107.8,1.2z"/>
	<path class="st0" d="M161.2,16.8c0-0.5,0.4-1,0.9-1c0.5,0,0.9,0.4,0.9,1c0,0.6-0.4,1-0.9,1C161.6,17.8,161.2,17.4,161.2,16.8z
		 M161.9,16.3h0.3c0.1,0,0.3,0,0.3,0.2c0,0.2-0.2,0.2-0.3,0.2h-0.2V16.3z M163.3,16.8c0-0.7-0.5-1.2-1.2-1.2c-0.6,0-1.2,0.5-1.2,1.2
		c0,0.7,0.5,1.2,1.2,1.2C162.7,18,163.3,17.5,163.3,16.8z M161.9,17.5v-0.6h0.2l0.3,0.6h0.2l-0.4-0.6c0.2,0,0.3-0.1,0.3-0.4
		c0-0.3-0.2-0.4-0.5-0.4h-0.5v1.3H161.9z"/>
	<path class="st0" d="M57.5,80.3h-15c-1.2,0-2.3-0.4-3.1-1.1l-0.1-0.1l0,0c-1-0.8-1.6-2.1-1.6-3.4V36.2c0-1.3,0.6-2.6,1.6-3.4l0,0
		l0.1-0.1c0.8-0.7,1.9-1.1,3.1-1.1H58c2.7,0,4.8,2.2,4.8,4.8c0,2.7-2.2,4.8-4.8,4.8H47.8v9.9H56c2.7,0,4.8,2.2,4.8,4.8
		c0,2.7-2.2,4.8-4.8,4.8h-8.3v9.8h9.8c2.7,0,4.8,2.2,4.8,4.8S60.3,80.3,57.5,80.3L57.5,80.3z"/>
	<path class="st0" d="M86.7,34.1c2,1.8,2.1,4.9,0.4,6.8c-1,1.1-2.3,1.6-3.7,1.6c-2.8,0-2.9-2-5.5-2c-2.6,0-4.3,2.1-4.3,4.3
		c0,2.1,1,3.7,6.2,5.9c4.6,2.2,11.6,5.5,11.6,14.4c0,9-6.9,15.8-14.8,15.8c-7.1,0-10.4-3.7-10.9-4.2c-2-1.8-2.1-4.9-0.4-6.8
		c1-1.1,2.3-1.6,3.6-1.6c2.7,0,3.1,2.9,7.4,2.9c2.7,0,5.4-2.1,5.4-5.4c0-1.5-0.6-2.9-1.4-3.6c-2.5-2.5-7.9-3.2-12.3-7.6
		c-2.4-2.3-4-5.4-4-10c0-7.4,6.6-13.9,13.9-13.9C83.2,30.9,86.3,33.8,86.7,34.1z"/>
	<path class="st0" d="M109.2,75.8c0,2.9-2.4,5.3-5.3,5.3c-2.9,0-5.3-2.4-5.3-5.3V41.3h-4.3c-2.7,0-4.8-2.2-4.8-4.8
		c0-2.7,2.2-4.8,4.8-4.8h19.1c2.7,0,4.8,2.2,4.8,4.8c0,2.7-2.2,4.8-4.8,4.8h-4.3V75.8z"/>
	<path class="st0" d="M218.2,80.3h-15.4c-1.2,0-2.3-0.4-3.1-1.1l-0.1-0.1l0,0c-1-0.8-1.6-2.1-1.6-3.4V36.2c0-1.3,0.6-2.6,1.6-3.4
		l0,0l0.1-0.1c0.8-0.7,1.9-1.1,3.1-1.1h15.5c2.7,0,4.8,2.2,4.8,4.8c0,2.7-2.2,4.8-4.8,4.8h-10.2v9.9h8.3c2.7,0,4.8,2.2,4.8,4.8
		c0,2.7-2.2,4.8-4.8,4.8h-8.3v9.8h10.2c2.7,0,4.8,2.2,4.8,4.8S221,80.3,218.2,80.3L218.2,80.3z"/>
	<path class="st0" d="M177.5,40.6c2.7,0,4.2,2.6,6.9,2.6c2.7,0,4.8-2.2,4.8-4.8c0-3.7-4.6-7.4-11.8-7.4c-10.6,0-19.2,11.2-19.2,25.1
		s8.6,25.1,19.2,25.1c10.6,0,18.5-11.2,18.5-25.1c0-0.9,0-1.7-0.1-2.5c-0.1-1.3-1.1-2.3-2.4-2.3h-13.1c-2.7,0-4.8,2.2-4.8,4.8
		c0,2.7,2.2,4.8,4.8,4.8h6c-1.3,6-4.3,10.6-8.9,10.6c-5,0-8.7-7.2-8.7-15.4S172.5,40.6,177.5,40.6z"/>
	<path class="st0" d="M145.4,56c0-8.2-4.3-15.4-10.1-15.4c-6.1,0-10.1,7.2-10.1,15.4s4,15.4,10.1,15.4
		C141.1,71.4,145.4,64.2,145.4,56z M156,56c0,13.9-9.3,25.1-20.8,25.1S114.5,69.8,114.5,56s9.3-25.1,20.8-25.1S156,42.1,156,56z"/>
	<path class="st0" d="M24.1,78.4L10.8,56.2c-0.2-0.3-0.5-0.1-0.5,0.2v19.4c0,2.8-2.2,5.3-5,5.4C2.4,81.2,0,78.8,0,75.9V36
		c0-2.7,2.1-5.1,4.8-5.1c2-0.1,3.7,1,4.6,2.7l13.5,22.7c0.2,0.3,0.5,0.1,0.5-0.1V24.4c0-2.8,2.2-5.3,5-5.4c2.9-0.1,5.3,2.3,5.3,5.2
		v51.8c0,2.8-2.2,5.1-5.1,5.1C26.6,81.1,25,80,24.1,78.4z"/>
	<path class="st0" d="M249.6,78.4l-13.3-22.2c-0.2-0.3-0.5-0.1-0.5,0.2v19.4c0,2.8-2.2,5.3-5,5.4c-2.9,0.1-5.3-2.3-5.3-5.1V36
		c0-2.7,2.1-5.1,4.8-5.1c2-0.1,3.7,1,4.6,2.7l13.5,22.7c0.2,0.3,0.5,0.1,0.5-0.1V24.4c0-2.8,2.2-5.3,5-5.4c2.9-0.1,5.3,2.3,5.3,5.2
		v51.8c0,2.8-2.2,5.1-5.1,5.1C252.1,81.1,250.5,80,249.6,78.4z"/>
	<path class="st0" d="M268,82.2c0-1.6-1.3-3-3-3c-1.7,0-3,1.3-3,3c0,1.7,1.3,3,3,3C266.7,85.2,268,83.8,268,82.2z M262.8,82.2
		c0-1.3,1.1-2.3,2.2-2.3c1.3,0,2.3,1,2.3,2.3c0,1.3-1,2.3-2.3,2.3S262.8,83.4,262.8,82.2z M264.5,81.2h0.6c0.3,0,0.5,0.1,0.5,0.4
		c0,0.3-0.1,0.4-0.5,0.4h-0.6V81.2z M264.5,83.5v-0.9h0.2l0.5,0.9c0.1,0.2,0.2,0.5,0.5,0.5c0.2,0,0.4-0.1,0.4-0.3
		c0-0.1,0-0.1-0.1-0.2l-0.6-0.9c0.5,0,0.8-0.3,0.8-0.9c0-0.8-0.7-0.9-1.3-0.9h-0.8c-0.2,0-0.3,0.1-0.3,0.3v2.5
		c0,0.2,0.1,0.4,0.4,0.4C264.5,83.9,264.5,83.7,264.5,83.5z"/>
	<path class="st0" d="M268,82.2c0-1.6-1.3-3-3-3c-1.7,0-3,1.3-3,3c0,1.7,1.3,3,3,3C266.7,85.2,268,83.8,268,82.2z M262.8,82.2
		c0-1.3,1.1-2.3,2.2-2.3c1.3,0,2.3,1,2.3,2.3c0,1.3-1,2.3-2.3,2.3S262.8,83.4,262.8,82.2z M264.5,81.2h0.6c0.3,0,0.5,0.1,0.5,0.4
		c0,0.3-0.1,0.4-0.5,0.4h-0.6V81.2z M264.5,83.5v-0.9h0.2l0.5,0.9c0.1,0.2,0.2,0.5,0.5,0.5c0.2,0,0.4-0.1,0.4-0.3
		c0-0.1,0-0.1-0.1-0.2l-0.6-0.9c0.5,0,0.8-0.3,0.8-0.9c0-0.8-0.7-0.9-1.3-0.9h-0.8c-0.2,0-0.3,0.1-0.3,0.3v2.5
		c0,0.2,0.1,0.4,0.4,0.4C264.5,83.9,264.5,83.7,264.5,83.5z"/>
</g>
</svg>
