<?xml version="1.0" encoding="utf-8"?>
<!-- Generator: Adobe Illustrator 25.2.3, SVG Export Plug-In . SVG Version: 6.00 Build 0)  -->
<svg version="1.1" id="Layer_1" xmlns="http://www.w3.org/2000/svg" xmlns:xlink="http://www.w3.org/1999/xlink" x="0px" y="0px"
	 viewBox="0 0 196.1 194" style="enable-background:new 0 0 196.1 194;" xml:space="preserve">
<style type="text/css">
	.st0{fill:#FFFFFF;}
</style>
<g>
	<path class="st0" d="M140.7,69.5l-29.7-8.1c-0.7-0.2-1.5-0.1-2.1,0.3l-11.5,7.7H81.8c-1.4,0-2.6,1.2-2.6,2.6s1.2,2.6,2.6,2.6h15.5
		l10,8.3h-72l10-8.3h16.4c1.4,0,2.6-1.2,2.6-2.6s-1.2-2.6-2.6-2.6H45.1l-11.5-7.7c-0.6-0.4-1.4-0.5-2.1-0.3L1.9,69.5
		c-1,0.3-1.8,1.2-1.9,2.2s0.4,2.1,1.4,2.6l24.2,12.8v104.3c0,1.4,1.2,2.6,2.6,2.6h86.3c1.4,0,2.6-1.2,2.6-2.6V87.1l24.2-12.8
		c0.9-0.5,1.5-1.5,1.4-2.6S141.8,69.8,140.7,69.5z M31.8,66.7l8.3,5.5L27.9,82.4L9.6,72.8L31.8,66.7z M30.8,188.8V88.1h81.1v100.7
		H30.8z M114.8,82.4l-12.2-10.2l8.3-5.5l22.2,6.1L114.8,82.4z"/>
	<g>
		<g>
			<g>
				<g>
					<path class="st0" d="M83.8,147.6c-1.1,0-2.1,0.4-2.1,0.8c0,0.3,0.3,0.6,0.6,0.6c0.2,0,0.6-0.3,0.6-0.3c0,5.4-5.2,9.8-11.6,9.8
						s-11.6-4.4-11.6-9.8c0,0,0.4,0.3,0.6,0.3c0.4,0,0.6-0.4,0.6-0.6c0-0.4-1.1-0.8-2.1-0.8c-1.7,0-2.6,0.9-2.6,1.3
						c0,0.2,0.2,0.5,0.4,0.5c0.1,0,0.4-0.3,0.7-0.4c0,0,0,0,0,0c0.2,6.1,6.4,11.1,14,11.1c7.6,0,13.8-4.9,14-11.1c0,0,0,0,0,0
						c0.3,0.1,0.6,0.4,0.7,0.4c0.2,0,0.4-0.3,0.4-0.5C86.4,148.5,85.4,147.6,83.8,147.6z"/>
					<path class="st0" d="M67,141.9c1.1,0,1.8,1.6,1.8,3c0,0.3-0.1,0.7-0.4,0.7c-0.3,0-0.5-0.3-1.2-0.3c-0.7,0-0.9,0.4-1.4,0.4
						c-0.5,0-0.5-0.8-0.5-1.3C65.2,143.3,65.7,141.9,67,141.9z"/>
					<path class="st0" d="M75.7,141.9c-1.1,0-1.8,1.6-1.8,3c0,0.3,0.1,0.7,0.4,0.7c0.3,0,0.5-0.3,1.2-0.3s0.9,0.4,1.4,0.4
						s0.5-0.8,0.5-1.3C77.5,143.3,76.9,141.9,75.7,141.9z"/>
				</g>
			</g>
		</g>
		<g>
			<path class="st0" d="M63.8,109.3c-0.1,0.1-0.1,0.1-0.1,0.3v3.7h0c0,0-2-3.6-2.1-3.8c-0.1-0.1-0.1-0.2-0.2-0.3
				c-0.1-0.1-0.2-0.1-0.4-0.1h-0.7c-0.2,0-0.3,0.1-0.3,0.1c-0.1,0.1-0.1,0.1-0.1,0.3v5.2c0,0.1,0,0.2,0.1,0.3
				c0.1,0.1,0.2,0.1,0.3,0.1h0.4c0.2,0,0.3-0.1,0.3-0.1c0.1-0.1,0.1-0.1,0.1-0.3V111h0c0,0,2.1,3.7,2.2,3.9c0.1,0.2,0.3,0.3,0.6,0.3
				h0.6c0.2,0,0.3-0.1,0.3-0.1c0.1-0.1,0.1-0.1,0.1-0.3v-4.7h8.5c0.1,0,0.2,0,0.2-0.1c0.1,0,0.1-0.1,0.1-0.2v-0.4
				c0-0.1,0-0.2-0.1-0.2c0,0-0.1-0.1-0.2-0.1h-9.3C63.9,109.1,63.8,109.2,63.8,109.3 M67.5,110.7c-1.4,0-2.2,1.1-2.2,2.3
				c0,1.2,0.8,2.3,2.2,2.3c0.7,0,1.3-0.3,1.7-0.7c0.2-0.2,0.3-0.5,0.3-0.6c0-0.1,0-0.1,0-0.1c0,0-0.1-0.1-0.2-0.1h-0.7
				c-0.1,0-0.2,0-0.3,0.1c-0.2,0.3-0.5,0.4-0.9,0.4c-0.6,0-1-0.5-1-1h2.8c0.1,0,0.2,0,0.3-0.1c0.1-0.1,0.1-0.2,0.1-0.3
				c0-0.5-0.2-1.1-0.5-1.5C68.8,111,68.2,110.7,67.5,110.7 M71.8,110.7c-1.1,0-1.8,0.5-1.8,1.4c0,0.3,0.1,0.5,0.3,0.7
				c0.2,0.2,0.5,0.4,0.9,0.5l0.9,0.2c0.3,0.1,0.5,0.1,0.5,0.4c0,0.3-0.4,0.5-0.8,0.5c-0.2,0-0.4,0-0.6-0.1c-0.1-0.1-0.2-0.1-0.3-0.2
				c-0.1-0.1-0.1-0.2-0.2-0.2c-0.1,0-0.1,0-0.2,0h-0.5c-0.1,0-0.2,0-0.2,0.1c0,0,0,0.1,0,0.2c0,0.2,0.1,0.4,0.2,0.5
				c0.3,0.4,1,0.7,1.8,0.7c0.8,0,1.9-0.3,1.9-1.4c0-0.3-0.1-0.5-0.2-0.7c-0.2-0.2-0.5-0.4-0.9-0.5l-0.9-0.2
				c-0.4-0.1-0.6-0.2-0.6-0.4c0-0.2,0.2-0.4,0.7-0.4c0.3,0,0.5,0.1,0.7,0.2c0.1,0.1,0.1,0.2,0.2,0.3c0.1,0,0.1,0,0.3,0h0.5
				c0.1,0,0.1,0,0.2-0.1c0,0,0.1-0.1,0.1-0.2c0-0.2-0.1-0.5-0.4-0.7C73,110.9,72.4,110.7,71.8,110.7 M74.4,110.8h-0.2
				c-0.1,0-0.2,0-0.2,0.1c-0.1,0-0.1,0.1-0.1,0.2v0.3c0,0.1,0,0.2,0.1,0.2c0,0,0.1,0.1,0.2,0.1h0.2v2c0,0.5,0.1,0.8,0.4,1.1
				c0.2,0.2,0.6,0.4,1.1,0.4h0.3c0.1,0,0.2,0,0.2-0.1c0.1,0,0.1-0.1,0.1-0.2v-0.4c0-0.1,0-0.2-0.1-0.2c0,0-0.1-0.1-0.2-0.1h0
				c-0.2,0-0.4-0.1-0.5-0.2c-0.1-0.1-0.2-0.3-0.2-0.5v-1.9h0.7c0.1,0,0.2,0,0.2-0.1c0.1,0,0.1-0.1,0.1-0.2v-0.3c0-0.1,0-0.2-0.1-0.2
				c0,0-0.1-0.1-0.2-0.1h-0.7v-1.3c0-0.1,0-0.2-0.1-0.2c-0.1-0.1-0.1-0.1-0.3-0.1h-0.5c-0.1,0-0.2,0-0.3,0.1c0,0.1-0.1,0.1-0.1,0.2
				V110.8z M76.8,114.8c0,0.1,0,0.2,0.1,0.2c0.1,0.1,0.1,0.1,0.3,0.1h0.5c0.1,0,0.2,0,0.3-0.1c0-0.1,0.1-0.1,0.1-0.2v-5.3
				c0-0.1,0-0.2-0.1-0.2c-0.1-0.1-0.1-0.1-0.3-0.1h-0.5c-0.1,0-0.2,0-0.3,0.1c0,0.1-0.1,0.1-0.1,0.2V114.8z M66.4,112.5
				c0.1-0.5,0.4-0.9,1-0.9c0.6,0,1,0.4,1,0.9H66.4z M82.4,110.1c0.1,0,0.2,0,0.2-0.1c0.1,0,0.1-0.1,0.1-0.2v-0.4
				c0-0.1,0-0.2-0.1-0.3c0,0-0.1-0.1-0.2-0.1c-0.1,0-0.1,0-0.2,0l-3.2,0.3c-0.1,0-0.1,0-0.2,0.1c0,0-0.1,0.1-0.1,0.2v0.2
				c0,0.1,0,0.1,0,0.2c0,0,0.1,0.1,0.2,0.1H82.4z M80.7,110.7c-1.4,0-2.2,1.1-2.2,2.3c0,1.2,0.8,2.3,2.2,2.3c0.7,0,1.3-0.3,1.7-0.7
				c0.2-0.2,0.3-0.5,0.3-0.6c0-0.1,0-0.1,0-0.1c0,0-0.1-0.1-0.2-0.1h-0.7c-0.1,0-0.2,0-0.3,0.1c-0.2,0.3-0.5,0.4-0.9,0.4
				c-0.6,0-1-0.5-1-1h2.8c0.1,0,0.2,0,0.3-0.1c0.1-0.1,0.1-0.2,0.1-0.3c0-0.5-0.2-1.1-0.5-1.5C82,111,81.4,110.7,80.7,110.7
				 M79.6,112.5c0.1-0.5,0.4-0.9,1-0.9c0.6,0,1,0.4,1,0.9H79.6z"/>
		</g>
		<g>
			<g>
				<path class="st0" d="M105.9,125c0,1.1-0.4,2-1.4,2.6c1.3,0.6,2.1,1.8,2.1,3.1c0,2-1.8,3.8-4.3,3.8c-2.6,0-4.1-1.9-4.1-3.1
					c0-0.7,0.6-1.2,1.3-1.2c0.5,0,0.7,0.3,1.1,1c0.4,0.6,0.9,1,1.7,1c0.9,0,1.6-0.7,1.6-1.6c0-0.4-0.1-0.6-0.2-0.8
					c-0.3-0.4-0.5-0.5-1.6-0.7c-0.7-0.1-1.1-0.4-1.1-1.1c0-0.8,0.4-1,1.2-1.2c0.8-0.2,1.2-0.5,1.2-1.3c0-0.7-0.5-1.1-1.2-1.1
					c-0.7,0-1.1,0.3-1.3,0.7c-0.3,0.5-0.6,1-1.2,1c-0.7,0-1.1-0.6-1.1-1.3c0-1.4,1.9-2.8,3.7-2.8C104.4,121.8,105.9,123.4,105.9,125
					z"/>
			</g>
			<g>
				<g>
					<path class="st0" d="M49.2,134.1h-3.4c-0.3,0-0.5-0.1-0.7-0.2c0,0,0,0,0,0l0,0c-0.2-0.2-0.4-0.5-0.4-0.8v-9
						c0-0.3,0.1-0.6,0.4-0.8l0,0c0,0,0,0,0,0c0.2-0.2,0.4-0.2,0.7-0.2h3.5c0.6,0,1.1,0.5,1.1,1.1c0,0.6-0.5,1.1-1.1,1.1l-2.3,0v2.2
						h1.9c0.6,0,1.1,0.5,1.1,1.1c0,0.6-0.5,1.1-1.1,1.1H47v2.2h2.2c0.6,0,1.1,0.5,1.1,1.1C50.3,133.6,49.8,134.1,49.2,134.1"/>
					<path class="st0" d="M55.8,123.6c0.5,0.4,0.5,1.1,0.1,1.6c-0.2,0.2-0.5,0.4-0.8,0.4c-0.6,0-0.7-0.4-1.3-0.4c-0.6,0-1,0.5-1,1
						c0,0.5,0.2,0.8,1.4,1.3c1,0.5,2.6,1.2,2.6,3.3c0,2-1.6,3.6-3.4,3.6c-1.6,0-2.4-0.8-2.5-0.9c-0.5-0.4-0.5-1.1-0.1-1.6
						c0.2-0.2,0.5-0.4,0.8-0.4c0.6,0,0.7,0.7,1.7,0.7c0.6,0,1.2-0.5,1.2-1.2c0-0.3-0.1-0.7-0.3-0.8c-0.6-0.6-1.8-0.7-2.8-1.7
						c-0.5-0.5-0.9-1.2-0.9-2.3c0-1.7,1.5-3.2,3.2-3.2C55,122.9,55.7,123.5,55.8,123.6z"/>
					<path class="st0" d="M60.9,133.1c0,0.7-0.5,1.2-1.2,1.2s-1.2-0.5-1.2-1.2v-7.8h-1c-0.6,0-1.1-0.5-1.1-1.1
						c0-0.6,0.5-1.1,1.1-1.1h4.3c0.6,0,1.1,0.5,1.1,1.1c0,0.6-0.5,1.1-1.1,1.1h-1V133.1z"/>
					<path class="st0" d="M85.7,134.1h-3.5c-0.3,0-0.5-0.1-0.7-0.2c0,0,0,0,0,0l0,0c-0.2-0.2-0.4-0.5-0.4-0.8v-9
						c0-0.3,0.1-0.6,0.4-0.8l0,0c0,0,0,0,0,0c0.2-0.2,0.4-0.2,0.7-0.2h3.5c0.6,0,1.1,0.5,1.1,1.1c0,0.6-0.5,1.1-1.1,1.1l-2.3,0v2.2
						h1.9c0.6,0,1.1,0.5,1.1,1.1s-0.5,1.1-1.1,1.1h-1.9v2.2h2.3c0.6,0,1.1,0.5,1.1,1.1S86.3,134.1,85.7,134.1"/>
					<path class="st0" d="M76.4,125.1c0.6,0,0.9,0.6,1.6,0.6c0.6,0,1.1-0.5,1.1-1.1c0-0.8-1-1.7-2.7-1.7c-2.4,0-4.4,2.6-4.4,5.7
						c0,3.1,2,5.7,4.4,5.7c2.4,0,4.2-2.6,4.2-5.7c0-0.2,0-0.4,0-0.6c0-0.3-0.3-0.5-0.5-0.5h-3c-0.6,0-1.1,0.5-1.1,1.1
						s0.5,1.1,1.1,1.1h1.4c-0.3,1.4-1,2.4-2,2.4c-1.1,0-2-1.6-2-3.5C74.5,126.7,75.3,125.1,76.4,125.1z"/>
					<path class="st0" d="M71.6,128.6c0,3.1-2.1,5.7-4.7,5.7c-2.6,0-4.7-2.6-4.7-5.7c0-3.1,2.1-5.7,4.7-5.7
						C69.4,122.9,71.6,125.4,71.6,128.6z M69.1,128.6c0-1.9-1-3.5-2.3-3.5c-1.4,0-2.3,1.6-2.3,3.5c0,1.9,0.9,3.5,2.3,3.5
						C68.2,132.1,69.1,130.4,69.1,128.6z"/>
					<path class="st0" d="M41.6,133.7l-3-5.1c0-0.1-0.1,0-0.1,0v4.4c0,0.6-0.5,1.2-1.1,1.2c-0.7,0-1.2-0.5-1.2-1.2V124
						c0-0.6,0.5-1.1,1.1-1.2c0.5,0,0.8,0.2,1,0.6l3.1,5.2c0,0.1,0.1,0,0.1,0l0-7.2c0-0.6,0.5-1.2,1.1-1.2c0.7,0,1.2,0.5,1.2,1.2
						v11.8c0,0.6-0.5,1.2-1.2,1.2C42.1,134.3,41.8,134,41.6,133.7z"/>
					<path class="st0" d="M92.8,133.7l-3-5.1c0-0.1-0.1,0-0.1,0v4.4c0,0.6-0.5,1.2-1.1,1.2c-0.7,0-1.2-0.5-1.2-1.2V124
						c0-0.6,0.5-1.1,1.1-1.2c0.5,0,0.8,0.2,1,0.6l3.1,5.2c0,0.1,0.1,0,0.1,0l0-7.2c0-0.6,0.5-1.2,1.1-1.2c0.7,0,1.2,0.5,1.2,1.2
						v11.8c0,0.6-0.5,1.2-1.2,1.2C93.4,134.3,93,134,92.8,133.7z"/>
				</g>
				<g>
					<g>
						<path class="st0" d="M97,134.5c0,0.4-0.3,0.7-0.7,0.7c-0.4,0-0.7-0.3-0.7-0.7c0-0.4,0.3-0.7,0.7-0.7
							C96.7,133.8,97,134.2,97,134.5z M96.3,135c0.3,0,0.5-0.2,0.5-0.5c0-0.3-0.2-0.5-0.5-0.5c-0.3,0-0.5,0.2-0.5,0.5
							C95.8,134.8,96,135,96.3,135z M96,134.8v-0.6c0,0,0-0.1,0.1-0.1h0.2c0.2,0,0.3,0,0.3,0.2c0,0.1-0.1,0.2-0.2,0.2l0.1,0.2
							c0,0,0,0,0,0c0,0,0,0.1-0.1,0.1c-0.1,0-0.1-0.1-0.1-0.1l-0.1-0.2h-0.1v0.2C96.2,134.9,96.2,134.9,96,134.8
							C96.1,134.9,96,134.9,96,134.8z M96.2,134.5h0.1c0.1,0,0.1,0,0.1-0.1c0-0.1,0-0.1-0.1-0.1h-0.1V134.5z"/>
					</g>
					<g>
						<path class="st0" d="M97,134.5c0,0.4-0.3,0.7-0.7,0.7c-0.4,0-0.7-0.3-0.7-0.7c0-0.4,0.3-0.7,0.7-0.7
							C96.7,133.8,97,134.2,97,134.5z M96.3,135c0.3,0,0.5-0.2,0.5-0.5c0-0.3-0.2-0.5-0.5-0.5c-0.3,0-0.5,0.2-0.5,0.5
							C95.8,134.8,96,135,96.3,135z M96,134.8v-0.6c0,0,0-0.1,0.1-0.1h0.2c0.2,0,0.3,0,0.3,0.2c0,0.1-0.1,0.2-0.2,0.2l0.1,0.2
							c0,0,0,0,0,0c0,0,0,0.1-0.1,0.1c-0.1,0-0.1-0.1-0.1-0.1l-0.1-0.2h-0.1v0.2C96.2,134.9,96.2,134.9,96,134.8
							C96.1,134.9,96,134.9,96,134.8z M96.2,134.5h0.1c0.1,0,0.1,0,0.1-0.1c0-0.1,0-0.1-0.1-0.1h-0.1V134.5z"/>
					</g>
				</g>
			</g>
		</g>
	</g>
	<path class="st0" d="M66.6,76l7.1-30.6H16.5c-6.2,0-11.3-4.8-11.3-10.6V10.6C5.1,4.7,10.2,0,16.5,0h168.3c6.2,0,11.3,4.7,11.3,10.6
		v24.3c0,5.8-5.1,10.6-11.3,10.6h-78.6L66.6,76z M16.5,5c-3.5,0-6.3,2.5-6.3,5.6v24.3c0,3.1,2.8,5.6,6.3,5.6H80l-5.4,23.1l29.8-23.1
		h80.3c3.5,0,6.3-2.5,6.3-5.6V10.6c0-3.1-2.8-5.6-6.3-5.6H16.5z"/>
	<g>
		<path class="st0" d="M26.9,21.7l-4.3-5.8c-0.3-0.4-0.4-0.8-0.4-1.2c0-0.6,0.2-1,0.6-1.4c0.4-0.4,0.8-0.5,1.4-0.5
			c0.7,0,1.3,0.3,1.7,1l3.3,4.7l3.3-4.7c0.5-0.7,1-1,1.7-1c0.6,0,1.1,0.2,1.4,0.5c0.4,0.4,0.6,0.8,0.6,1.4c0,0.4-0.1,0.8-0.4,1.2
			l-4.3,5.8l5.2,7c0.3,0.4,0.4,0.9,0.4,1.3c0,0.5-0.2,1-0.6,1.3c-0.4,0.3-0.9,0.5-1.5,0.5c-0.7,0-1.2-0.3-1.6-0.9l-4.3-6l-4.3,6
			c-0.4,0.6-1,0.9-1.6,0.9c-0.6,0-1.1-0.2-1.4-0.5c-0.4-0.4-0.6-0.8-0.6-1.3c0-0.5,0.1-0.9,0.4-1.3L26.9,21.7z"/>
		<path class="st0" d="M43.1,21.7l-4.3-5.8c-0.3-0.4-0.4-0.8-0.4-1.2c0-0.6,0.2-1,0.6-1.4c0.4-0.4,0.8-0.5,1.4-0.5
			c0.7,0,1.3,0.3,1.7,1l3.3,4.7l3.3-4.7c0.5-0.7,1-1,1.7-1c0.6,0,1.1,0.2,1.4,0.5c0.4,0.4,0.6,0.8,0.6,1.4c0,0.4-0.1,0.8-0.4,1.2
			l-4.3,5.8l5.2,7c0.3,0.4,0.4,0.9,0.4,1.3c0,0.5-0.2,1-0.6,1.3C52.4,31.8,52,32,51.4,32c-0.7,0-1.2-0.3-1.6-0.9l-4.3-6l-4.3,6
			c-0.4,0.6-1,0.9-1.6,0.9c-0.6,0-1.1-0.2-1.4-0.5c-0.4-0.4-0.6-0.8-0.6-1.3c0-0.5,0.1-0.9,0.4-1.3L43.1,21.7z"/>
		<path class="st0" d="M59.3,21.7L55,15.9c-0.3-0.4-0.4-0.8-0.4-1.2c0-0.6,0.2-1,0.6-1.4c0.4-0.4,0.8-0.5,1.4-0.5
			c0.7,0,1.3,0.3,1.7,1l3.3,4.7l3.3-4.7c0.5-0.7,1-1,1.7-1c0.6,0,1.1,0.2,1.4,0.5c0.4,0.4,0.6,0.8,0.6,1.4c0,0.4-0.1,0.8-0.4,1.2
			l-4.3,5.8l5.2,7c0.3,0.4,0.4,0.9,0.4,1.3c0,0.5-0.2,1-0.6,1.3c-0.4,0.3-0.9,0.5-1.5,0.5c-0.7,0-1.2-0.3-1.6-0.9l-4.3-6l-4.3,6
			c-0.4,0.6-1,0.9-1.6,0.9c-0.6,0-1.1-0.2-1.4-0.5c-0.4-0.4-0.6-0.8-0.6-1.3c0-0.5,0.1-0.9,0.4-1.3L59.3,21.7z"/>
		<path class="st0" d="M82.6,21.7l-4.3-5.8c-0.3-0.4-0.4-0.8-0.4-1.2c0-0.6,0.2-1,0.6-1.4c0.4-0.4,0.8-0.5,1.4-0.5
			c0.7,0,1.3,0.3,1.7,1l3.3,4.7l3.3-4.7c0.5-0.7,1-1,1.7-1c0.6,0,1.1,0.2,1.4,0.5c0.4,0.4,0.6,0.8,0.6,1.4c0,0.4-0.1,0.8-0.4,1.2
			l-4.3,5.8l5.2,7c0.3,0.4,0.4,0.9,0.4,1.3c0,0.5-0.2,1-0.6,1.3c-0.4,0.3-0.9,0.5-1.5,0.5c-0.7,0-1.2-0.3-1.6-0.9l-4.3-6l-4.3,6
			c-0.4,0.6-1,0.9-1.6,0.9c-0.6,0-1.1-0.2-1.4-0.5c-0.4-0.4-0.6-0.8-0.6-1.3c0-0.5,0.1-0.9,0.4-1.3L82.6,21.7z"/>
		<path class="st0" d="M98.8,21.7l-4.3-5.8c-0.3-0.4-0.4-0.8-0.4-1.2c0-0.6,0.2-1,0.6-1.4c0.4-0.4,0.8-0.5,1.4-0.5
			c0.7,0,1.3,0.3,1.7,1l3.3,4.7l3.3-4.7c0.5-0.7,1-1,1.7-1c0.6,0,1.1,0.2,1.4,0.5c0.4,0.4,0.6,0.8,0.6,1.4c0,0.4-0.1,0.8-0.4,1.2
			l-4.3,5.8l5.2,7c0.3,0.4,0.4,0.9,0.4,1.3c0,0.5-0.2,1-0.6,1.3c-0.4,0.3-0.9,0.5-1.5,0.5c-0.7,0-1.2-0.3-1.6-0.9l-4.3-6l-4.3,6
			c-0.4,0.6-1,0.9-1.6,0.9c-0.6,0-1.1-0.2-1.4-0.5c-0.4-0.4-0.6-0.8-0.6-1.3c0-0.5,0.1-0.9,0.4-1.3L98.8,21.7z"/>
		<path class="st0" d="M115,21.7l-4.3-5.8c-0.3-0.4-0.4-0.8-0.4-1.2c0-0.6,0.2-1,0.6-1.4c0.4-0.4,0.8-0.5,1.4-0.5
			c0.7,0,1.3,0.3,1.7,1l3.3,4.7l3.3-4.7c0.5-0.7,1-1,1.7-1c0.6,0,1.1,0.2,1.4,0.5c0.4,0.4,0.6,0.8,0.6,1.4c0,0.4-0.1,0.8-0.4,1.2
			l-4.3,5.8l5.2,7c0.3,0.4,0.4,0.9,0.4,1.3c0,0.5-0.2,1-0.6,1.3c-0.4,0.3-0.9,0.5-1.5,0.5c-0.7,0-1.2-0.3-1.6-0.9l-4.3-6l-4.3,6
			c-0.4,0.6-1,0.9-1.6,0.9c-0.6,0-1.1-0.2-1.4-0.5c-0.4-0.4-0.6-0.8-0.6-1.3c0-0.5,0.1-0.9,0.4-1.3L115,21.7z"/>
		<path class="st0" d="M138.3,21.7l-4.3-5.8c-0.3-0.4-0.4-0.8-0.4-1.2c0-0.6,0.2-1,0.6-1.4c0.4-0.4,0.8-0.5,1.4-0.5
			c0.7,0,1.3,0.3,1.7,1l3.3,4.7l3.3-4.7c0.5-0.7,1-1,1.7-1c0.6,0,1.1,0.2,1.4,0.5c0.4,0.4,0.6,0.8,0.6,1.4c0,0.4-0.1,0.8-0.4,1.2
			l-4.3,5.8l5.2,7c0.3,0.4,0.4,0.9,0.4,1.3c0,0.5-0.2,1-0.6,1.3c-0.4,0.3-0.9,0.5-1.5,0.5c-0.7,0-1.2-0.3-1.6-0.9l-4.3-6l-4.3,6
			c-0.4,0.6-1,0.9-1.6,0.9c-0.6,0-1.1-0.2-1.4-0.5c-0.4-0.4-0.6-0.8-0.6-1.3c0-0.5,0.1-0.9,0.4-1.3L138.3,21.7z"/>
		<path class="st0" d="M154.5,21.7l-4.3-5.8c-0.3-0.4-0.4-0.8-0.4-1.2c0-0.6,0.2-1,0.6-1.4c0.4-0.4,0.8-0.5,1.4-0.5
			c0.7,0,1.3,0.3,1.7,1l3.3,4.7l3.3-4.7c0.5-0.7,1-1,1.7-1c0.6,0,1.1,0.2,1.4,0.5c0.4,0.4,0.6,0.8,0.6,1.4c0,0.4-0.1,0.8-0.4,1.2
			l-4.3,5.8l5.2,7c0.3,0.4,0.4,0.9,0.4,1.3c0,0.5-0.2,1-0.6,1.3c-0.4,0.3-0.9,0.5-1.5,0.5c-0.7,0-1.2-0.3-1.6-0.9l-4.3-6l-4.3,6
			c-0.4,0.6-1,0.9-1.6,0.9c-0.6,0-1.1-0.2-1.4-0.5c-0.4-0.4-0.6-0.8-0.6-1.3c0-0.5,0.1-0.9,0.4-1.3L154.5,21.7z"/>
		<path class="st0" d="M170.7,21.7l-4.3-5.8c-0.3-0.4-0.4-0.8-0.4-1.2c0-0.6,0.2-1,0.6-1.4c0.4-0.4,0.8-0.5,1.4-0.5
			c0.7,0,1.3,0.3,1.7,1l3.3,4.7l3.3-4.7c0.5-0.7,1-1,1.7-1c0.6,0,1.1,0.2,1.4,0.5c0.4,0.4,0.6,0.8,0.6,1.4c0,0.4-0.1,0.8-0.4,1.2
			l-4.3,5.8l5.2,7c0.3,0.4,0.4,0.9,0.4,1.3c0,0.5-0.2,1-0.6,1.3c-0.4,0.3-0.9,0.5-1.5,0.5c-0.7,0-1.2-0.3-1.6-0.9l-4.3-6l-4.3,6
			c-0.4,0.6-1,0.9-1.6,0.9c-0.6,0-1.1-0.2-1.4-0.5c-0.4-0.4-0.6-0.8-0.6-1.3c0-0.5,0.1-0.9,0.4-1.3L170.7,21.7z"/>
	</g>
</g>
</svg>
