<?xml version="1.0" encoding="utf-8"?>
<!-- Generator: Adobe Illustrator 25.2.3, SVG Export Plug-In . SVG Version: 6.00 Build 0)  -->
<svg version="1.1" id="Layer_1" xmlns="http://www.w3.org/2000/svg" xmlns:xlink="http://www.w3.org/1999/xlink" x="0px" y="0px"
	 viewBox="0 0 323.2 380.1" style="enable-background:new 0 0 323.2 380.1;" xml:space="preserve">
<style type="text/css">
	.st0{fill:none;stroke:#FFFFFF;stroke-width:14.1517;stroke-linecap:round;stroke-linejoin:round;stroke-miterlimit:10;}
	.st1{fill:#FFFFFF;}
	.st2{fill:#FAED33;}
	.st3{fill:#FCEE2D;}
</style>
<g>
	<line class="st0" x1="206.6" y1="338.5" x2="231.6" y2="338.5"/>
	<g>
		<g>
			<path class="st1" d="M309,312.1v36.2c0,9.8-8,17.8-17.8,17.8H147c-9.8,0-17.8-8-17.8-17.8v-36.2H309 M323.2,297.9H115.1v50.3
				c0,17.6,14.3,31.9,31.9,31.9h144.3c17.6,0,31.9-14.3,31.9-31.9L323.2,297.9L323.2,297.9z"/>
		</g>
	</g>
	<path class="st2" d="M193.2,142.9h48.3v7.8h-48.3V142.9z M193.2,165.7V158h48.3v7.8h-20V209h-8.3v-43.3H193.2z"/>
	<path class="st2" d="M264.5,221.9c12.6-12.6,19.5-29.3,19.5-47.1s-6.9-34.5-19.5-47.1s-29.3-19.5-47.1-19.5s-34.5,6.9-47.1,19.5
		s-19.5,29.3-19.5,47.1s6.9,34.5,19.5,47.1s29.3,19.5,47.1,19.5C235.1,241.4,251.9,234.5,264.5,221.9 M162.5,174.8
		c0-30.2,24.6-54.8,54.8-54.8s54.8,24.6,54.8,54.8s-24.6,54.8-54.8,54.8S162.5,205,162.5,174.8"/>
	<path class="st2" d="M29.4,152.6h9.8c2.9,0,5.2-2.3,5.2-5.2s-2.3-5.2-5.2-5.2h-9.8c-2.9,0-5.2,2.3-5.2,5.2S26.6,152.6,29.4,152.6"
		/>
	<path class="st2" d="M56.3,152.6h74.5c2.9,0,5.2-2.3,5.2-5.2s-2.3-5.2-5.2-5.2H56.3c-2.9,0-5.2,2.3-5.2,5.2
		C51.2,150.3,53.5,152.6,56.3,152.6"/>
	<path class="st2" d="M14.9,167.8H5.2c-2.9,0-5.2,2.3-5.2,5.2s2.3,5.2,5.2,5.2H15c2.9,0,5.2-2.3,5.2-5.2
		C20.1,170.1,17.8,167.8,14.9,167.8"/>
	<path class="st2" d="M32.1,167.8c-2.9,0-5.2,2.3-5.2,5.2s2.3,5.2,5.2,5.2h74.5c2.9,0,5.2-2.3,5.2-5.2s-2.3-5.2-5.2-5.2H32.1z"/>
	<path class="st2" d="M39.2,193.3h-9.8c-2.9,0-5.2,2.3-5.2,5.2s2.3,5.2,5.2,5.2h9.8c2.9,0,5.2-2.3,5.2-5.2S42,193.3,39.2,193.3"/>
	<path class="st2" d="M136,198.5c0-2.9-2.3-5.2-5.2-5.2H56.3c-2.9,0-5.2,2.3-5.2,5.2s2.3,5.2,5.2,5.2h74.5
		C133.7,203.7,136,201.4,136,198.5"/>
	<g>
		<path class="st3" d="M265.2,95.7l1.7-8.4c-8.8,10.2-20.8,15.9-35,18.5c-4.4,0.8-9.1,1.3-13.9,1.6c-0.2,0-0.3,0-0.5,0
			c-0.3,0-0.6,0.1-0.9,0.1l0,0c-0.2,0-0.4,0-0.6,0c-0.2,0-0.4,0-0.6,0l0,0c-0.6,0-1.3-0.1-2.1-0.2c-1.5,0-3-0.1-4.4-0.2
			c-16.5-1-30.6-5.8-41.1-16.5l2.3,8.2l-10.4,4.2c15.8,5.3,32.2,6.1,48.9,5.1c3.2-0.2,6.3-0.4,9.5-0.7c4.5,0.1,8.9,0.1,13.3,0
			c15.3-0.4,30.3-2.5,44.6-8.3L265.2,95.7z"/>
		<path class="st3" d="M217.5,107.4c2.5-0.4,6.3-1.2,10.5-2.5c13.3-4.1,30.4-12.3,22-21.8c-2.5-2.9-5.5-2.9-10.1-1.4
			c2.1-4.4,2.5-7.3-0.1-10.2c-0.1-0.1-0.2-0.2-0.3-0.4c-2.9-2.8-7.9-2.7-11.4,0.4c-6.1,5.3-10.3,21-12.2,32.6
			c-0.7-2.9-1.5-6-2.5-9.1c-2.9-9.3-7-18.9-11.8-22.6c-3.9-3-9.2-2.7-11.7,0.7c-2.3,3.1-1.8,5.9,0.6,10.2c-4.7-1.2-7.6-1-10,2.1
			c-8.8,11.5,15.5,19.1,29,21.4c1.4,0.2,2.7,0.4,3.8,0.5C214.7,107.4,216.1,107.4,217.5,107.4z M230.7,79.5c1.9-1.7,4.6-1.7,6.1-0.1
			l0.1,0.1c1.3,1.5,1.1,3,0,5.3c2.4-0.8,4-0.8,5.3,0.7c3.9,4.4-4.7,10.8-12.6,15c-4.7,2.5-9.2,4.2-10.6,4.2
			C219.8,98.6,227.2,82.6,230.7,79.5z M210.2,104.5c-7.7-2.1-26.7-10.7-21.8-17.2c1.2-1.6,2.8-1.7,5.2-1.1c-1.2-2.2-1.5-3.7-0.3-5.3
			c1.4-1.8,4.1-1.9,6.2-0.4c3,2.3,9.1,13,12,20.1c0.7,1.7,1.2,3.1,1.4,4.3C212.4,105,211.5,104.8,210.2,104.5z"/>
	</g>
	<g>
		<path class="st1" d="M289.9,0H148.4c-18.4,0-33.3,14.9-33.3,33.3v90.2h14.2V33.3c0-10.6,8.6-19.1,19.1-19.1h141.5
			c10.6,0,19.1,8.6,19.1,19.1v262.9c0,0.1-0.1,0.3-0.3,0.3H129.2v-75H115v78.6c0,5.8,4.7,10.5,10.5,10.5h183.1
			c8,0,14.4-6.5,14.4-14.4V33.3C323.2,14.9,308.2,0,289.9,0z"/>
	</g>
</g>
</svg>
