<?xml version="1.0" encoding="utf-8"?>
<!-- Generator: Adobe Illustrator 25.2.3, SVG Export Plug-In . SVG Version: 6.00 Build 0)  -->
<svg version="1.1" id="Layer_1" xmlns="http://www.w3.org/2000/svg" xmlns:xlink="http://www.w3.org/1999/xlink" x="0px" y="0px"
	 viewBox="0 0 300.9 245.5" style="enable-background:new 0 0 300.9 245.5;" xml:space="preserve">
<style type="text/css">
	.st0{fill:#FFF118;}
	.st1{fill:#FFF100;}
	.st2{fill:#FFFFFF;}
	.st3{fill-rule:evenodd;clip-rule:evenodd;fill:#00A854;}
	.st4{fill:#00A854;}
</style>
<g>
	<path class="st0" d="M286.2,155H14.7C6.6,155,0,148.4,0,140.3V85.4h300.9v54.9C300.9,148.4,294.3,155,286.2,155z"/>
	<g>
		<g>
			<g>
				<path class="st1" d="M39.2,76.7h91.6V62.4c0,0-9.5,0.1-12.7,0c-12.2-0.6-37.9-3.5-47.9-9.7c-2.3-1.4-3-5.9-3-5.9l-20.4,0.1
					c0,0-2.7,0-5.7,3.6c-0.7,0.8-1.9,3.7-1.9,3.7V76.7z"/>
				<path class="st1" d="M265.8,76.7h-91.6V62.4c0,0,9.5,0.1,12.7,0c12.2-0.6,37.9-3.5,47.9-9.7c2.3-1.4,3-5.9,3-5.9l20.4,0.1
					c0,0,2.7,0,5.7,3.6c0.7,0.8,1.9,3.7,1.9,3.7V76.7z"/>
			</g>
			<path class="st2" d="M214.7,41.6l2.2-10.2c0,0-9.7,9.1-22.4,15.2c-9.4,4.5-21.5,6.3-26.8,6.9c-0.9,0.1-1.7,0.2-2.4,0.3v-6.3
				c4.6-1.1,10-2.5,13.4-3.6c6.9-2.2,19.9-8.8,22.4-15.6c2.6-6.8-3.7-11.7-6.4-12.2c-2.7-0.5-8.9,0.3-8.9,0.3s2.9-4,2.5-7.6
				c-0.4-3.6-3.2-8.8-8.6-8.8s-9.7,1.1-13.9,8c-4.2,6.9-8.5,18.7-9.8,24.1c-0.8,3.4-2.3,9.2-3.3,13c-1-3.8-2.5-9.6-3.3-13
				c-1.3-5.4-5.6-17.2-9.8-24.1c-4.2-6.9-8.6-8-13.9-8c-5.3,0-8.1,5.3-8.6,8.8c-0.4,3.6,2.5,7.6,2.5,7.6s-6.2-0.8-8.9-0.3
				c-2.7,0.5-9,5.4-6.4,12.2c2.6,6.8,15.6,13.4,22.4,15.6c3.2,1.1,8.3,2.3,12.8,3.4v6.5c-0.8-0.1-1.6-0.2-2.4-0.3
				c-5.3-0.6-17.5-2.4-26.8-6.9c-12.7-6.1-22.4-15.2-22.4-15.2l2.2,10.2l-13.8,5.2c0,0,3.2,1.3,7.2,2.5s16,3.8,24.1,5
				c6.4,0.9,24.5,1,31.8,1v21.3h25.6V55.2c7.3,0,25.4-0.1,31.8-1c8.1-1.2,20.1-3.8,24.1-5s7.2-2.5,7.2-2.5L214.7,41.6z M167.2,22.4
				c5.9-10.1,7.7-11.5,12.8-10.2c5.2,1.3,1.6,7.9,1.6,7.9s6.9-1.2,7.4,2.9c0.5,4.2-2.8,8.4-7,11.2c-4.3,2.9-11.4,7.1-16,8.7
				c-4.6,1.6-7.5,2.7-9.4,2.7C157.8,42.8,161.4,32.5,167.2,22.4z M123.6,34.4c-4.3-2.9-7.6-7-7-11.2c0.5-4.2,7.4-2.9,7.4-2.9
				s-3.6-6.6,1.6-7.9c5.2-1.3,6.9,0.1,12.8,10.2c5.9,10.1,9.4,20.4,10.6,23.3c-1.9,0-4.7-1.1-9.4-2.7
				C135,41.5,127.9,37.2,123.6,34.4z"/>
		</g>
		<path class="st1" d="M243,85.4H62H39.2v22.8v89.4v25.2c0,12.6,10.2,22.8,22.8,22.8h181c12.6,0,22.8-10.2,22.8-22.8v-25.2v-89.4
			V85.4H243z M256.3,222.7c0,7.3-6,13.3-13.3,13.3H62c-7.3,0-13.3-6-13.3-13.3V94.9h207.6V222.7z"/>
	</g>
	<g>
		<g id="Rounded_Rectangle_12_copy">
			<g>
				<path class="st3" d="M286.1,97.2h-19.3c-2.2,0-4,1.8-4,4s1.8,4,4,4h19.3c2.2,0,4-1.8,4-4S288.3,97.2,286.1,97.2z"/>
			</g>
		</g>
		<g>
			<path class="st4" d="M17.9,134.6v-28.7h-3.4c-1.3,0-2.3-0.4-2.9-1.2c-0.6-0.8-1-1.7-1-2.8c0-1.1,0.4-2,1.1-2.8
				c0.7-0.8,1.6-1.2,2.8-1.2h8.1c1.2,0,2.1,0.4,2.8,1.1c0.7,0.8,1,1.7,1,2.9v32.6c0,1.4-0.4,2.5-1.2,3.3c-0.8,0.8-1.8,1.2-3.1,1.2
				s-2.3-0.4-3.1-1.2C18.3,137.1,17.9,136,17.9,134.6z"/>
			<path class="st4" d="M66.5,137.4c-2.1,1.3-4.5,1.9-7.2,1.9c-2.7,0-5.1-0.7-7.2-1.9c-2.1-1.3-3.6-3-4.7-5.1
				c-1.1-2.1-1.9-4.4-2.4-6.7c-0.5-2.3-0.8-4.7-0.8-7.3c0-2.5,0.3-4.9,0.8-7.3c0.5-2.3,1.3-4.6,2.4-6.7c1.1-2.1,2.7-3.9,4.7-5.1
				c2.1-1.3,4.5-1.9,7.2-1.9c2.7,0,5.1,0.7,7.2,1.9c2.1,1.3,3.6,3,4.7,5.1c1.1,2.1,1.9,4.4,2.4,6.7c0.5,2.3,0.8,4.7,0.8,7.3
				c0,2.5-0.3,4.9-0.8,7.3c-0.5,2.3-1.3,4.6-2.4,6.7C70.1,134.4,68.5,136.1,66.5,137.4z M53,118.3c0,8.8,2.1,13.3,6.2,13.3
				s6.2-4.4,6.2-13.3s-2.1-13.3-6.2-13.3S53,109.5,53,118.3z"/>
			<path class="st4" d="M99.3,137.4c-2.1,1.3-4.5,1.9-7.2,1.9c-2.7,0-5.1-0.7-7.2-1.9c-2.1-1.3-3.6-3-4.7-5.1s-1.9-4.4-2.4-6.7
				c-0.5-2.3-0.8-4.7-0.8-7.3c0-2.5,0.3-4.9,0.8-7.3c0.5-2.3,1.3-4.6,2.4-6.7c1.1-2.1,2.7-3.9,4.7-5.1c2.1-1.3,4.5-1.9,7.2-1.9
				c2.7,0,5.1,0.7,7.2,1.9c2.1,1.3,3.6,3,4.7,5.1c1.1,2.1,1.9,4.4,2.4,6.7c0.5,2.3,0.8,4.7,0.8,7.3c0,2.5-0.3,4.9-0.8,7.3
				c-0.5,2.3-1.3,4.6-2.4,6.7C103,134.4,101.4,136.1,99.3,137.4z M85.9,118.3c0,8.8,2.1,13.3,6.2,13.3c4.2,0,6.2-4.4,6.2-13.3
				s-2.1-13.3-6.2-13.3C87.9,105.1,85.9,109.5,85.9,118.3z"/>
			<path class="st4" d="M132.1,137.4c-2.1,1.3-4.5,1.9-7.2,1.9c-2.7,0-5.1-0.7-7.2-1.9c-2.1-1.3-3.6-3-4.7-5.1s-1.9-4.4-2.4-6.7
				c-0.5-2.3-0.8-4.7-0.8-7.3c0-2.5,0.3-4.9,0.8-7.3c0.5-2.3,1.3-4.6,2.4-6.7c1.1-2.1,2.7-3.9,4.7-5.1c2.1-1.3,4.5-1.9,7.2-1.9
				c2.7,0,5.1,0.7,7.2,1.9c2.1,1.3,3.6,3,4.7,5.1c1.1,2.1,1.9,4.4,2.4,6.7c0.5,2.3,0.8,4.7,0.8,7.3c0,2.5-0.3,4.9-0.8,7.3
				c-0.5,2.3-1.3,4.6-2.4,6.7C135.8,134.4,134.2,136.1,132.1,137.4z M118.7,118.3c0,8.8,2.1,13.3,6.2,13.3s6.2-4.4,6.2-13.3
				s-2.1-13.3-6.2-13.3S118.7,109.5,118.7,118.3z"/>
			<path class="st4" d="M177.4,137.4c-2.1,1.3-4.5,1.9-7.2,1.9s-5.1-0.7-7.2-1.9c-2.1-1.3-3.6-3-4.7-5.1c-1.1-2.1-1.9-4.4-2.4-6.7
				c-0.5-2.3-0.8-4.7-0.8-7.3c0-2.5,0.3-4.9,0.8-7.3c0.5-2.3,1.3-4.6,2.4-6.7c1.1-2.1,2.7-3.9,4.7-5.1c2.1-1.3,4.5-1.9,7.2-1.9
				s5.1,0.7,7.2,1.9c2.1,1.3,3.6,3,4.7,5.1c1.1,2.1,1.9,4.4,2.4,6.7c0.5,2.3,0.8,4.7,0.8,7.3c0,2.5-0.3,4.9-0.8,7.3
				c-0.5,2.3-1.3,4.6-2.4,6.7C181.1,134.4,179.5,136.1,177.4,137.4z M164,118.3c0,8.8,2.1,13.3,6.2,13.3c4.2,0,6.2-4.4,6.2-13.3
				s-2.1-13.3-6.2-13.3C166.1,105.1,164,109.5,164,118.3z"/>
			<path class="st4" d="M210.3,137.4c-2.1,1.3-4.5,1.9-7.2,1.9s-5.1-0.7-7.2-1.9c-2.1-1.3-3.6-3-4.7-5.1c-1.1-2.1-1.9-4.4-2.4-6.7
				c-0.5-2.3-0.8-4.7-0.8-7.3c0-2.5,0.3-4.9,0.8-7.3c0.5-2.3,1.3-4.6,2.4-6.7c1.1-2.1,2.7-3.9,4.7-5.1c2.1-1.3,4.5-1.9,7.2-1.9
				s5.1,0.7,7.2,1.9c2.1,1.3,3.6,3,4.7,5.1c1.1,2.1,1.9,4.4,2.4,6.7c0.5,2.3,0.8,4.7,0.8,7.3c0,2.5-0.3,4.9-0.8,7.3
				c-0.5,2.3-1.3,4.6-2.4,6.7C213.9,134.4,212.3,136.1,210.3,137.4z M196.8,118.3c0,8.8,2.1,13.3,6.2,13.3c4.2,0,6.2-4.4,6.2-13.3
				s-2.1-13.3-6.2-13.3C198.9,105.1,196.8,109.5,196.8,118.3z"/>
			<path class="st4" d="M243.1,137.4c-2.1,1.3-4.5,1.9-7.2,1.9s-5.1-0.7-7.2-1.9c-2.1-1.3-3.6-3-4.7-5.1c-1.1-2.1-1.9-4.4-2.4-6.7
				c-0.5-2.3-0.8-4.7-0.8-7.3c0-2.5,0.3-4.9,0.8-7.3c0.5-2.3,1.3-4.6,2.4-6.7c1.1-2.1,2.7-3.9,4.7-5.1c2.1-1.3,4.5-1.9,7.2-1.9
				s5.1,0.7,7.2,1.9c2.1,1.3,3.6,3,4.7,5.1c1.1,2.1,1.9,4.4,2.4,6.7c0.5,2.3,0.8,4.7,0.8,7.3c0,2.5-0.3,4.9-0.8,7.3
				c-0.5,2.3-1.3,4.6-2.4,6.7C246.7,134.4,245.1,136.1,243.1,137.4z M229.6,118.3c0,8.8,2.1,13.3,6.2,13.3s6.2-4.4,6.2-13.3
				s-2.1-13.3-6.2-13.3S229.6,109.5,229.6,118.3z"/>
			<path class="st4" d="M272.7,134.5v-19h-5.8c-1.1,0-2-0.3-2.6-1c-0.6-0.6-1-1.5-1-2.6c0-1,0.3-1.9,1-2.6c0.7-0.7,1.5-1,2.6-1h19.8
				c1.1,0,2.1,0.3,2.8,0.9c0.7,0.6,1.1,1.5,1.1,2.7c0,1.2-0.4,2.1-1.1,2.7c-0.7,0.6-1.7,0.9-2.8,0.9h-5.8v19c0,1.4-0.4,2.5-1.1,3.3
				c-0.8,0.8-1.8,1.3-3,1.3s-2.2-0.4-3-1.3C273.1,136.9,272.7,135.8,272.7,134.5z"/>
		</g>
	</g>
</g>
<g>
	<path class="st2" d="M59.8,182.3c0-0.6,0.2-1.1,0.5-1.5c0.3-0.4,0.8-0.6,1.3-0.6c0.5,0,1,0.2,1.3,0.6c0.3,0.4,0.5,0.9,0.5,1.5v3.3
		l4-4.6c0.5-0.5,1-0.8,1.6-0.8c0.4,0,0.8,0.2,1.1,0.5c0.3,0.3,0.4,0.7,0.4,1.1c0,0.5-0.2,0.9-0.7,1.4l-3.4,3.4l4.4,4.3
		c0.3,0.3,0.5,0.7,0.5,1.2c0,0.5-0.2,0.9-0.5,1.2c-0.3,0.3-0.7,0.5-1.2,0.5c-0.5,0-1-0.4-1.7-1.1l-4.4-4.7h0v3.8
		c0,0.6-0.2,1.1-0.5,1.5c-0.3,0.4-0.8,0.6-1.3,0.6c-0.5,0-1-0.2-1.3-0.6c-0.3-0.4-0.5-0.9-0.5-1.5V182.3z"/>
	<path class="st2" d="M76.9,194.2c-1.5,0-2.7-0.4-3.6-1.1c-0.9-0.8-1.4-1.8-1.4-3.2c0-3.1,2.8-4.7,8.3-4.7v-1c0-0.6-0.5-1-1.6-1
		c-0.8,0-1.5,0.2-2.2,0.6c-0.6,0.4-1.1,0.6-1.3,0.6c-1.1,0-1.6-0.5-1.6-1.5c0-0.7,0.6-1.3,1.7-1.9c1.1-0.5,2.2-0.8,3.3-0.8
		c3.5,0,5.2,1.4,5.2,4.1v7.9c0,0.5-0.2,1-0.5,1.4c-0.3,0.4-0.8,0.6-1.3,0.6c-0.9,0-1.5-0.4-1.7-1.3
		C79.7,193.7,78.6,194.2,76.9,194.2z M77.6,191.1c1.8,0,2.7-0.9,2.7-2.7v-0.6c-1.7,0-2.8,0-3.3,0.2c-1.1,0.3-1.6,0.9-1.6,1.8
		C75.4,190.7,76.1,191.1,77.6,191.1z"/>
	<path class="st2" d="M103.8,193.5c-0.3,0.3-0.7,0.5-1.2,0.5c-0.5,0-1-0.4-1.7-1.1l-4.4-4.7h-0.1v3.8c0,0.6-0.2,1.1-0.5,1.5
		c-0.3,0.4-0.8,0.6-1.3,0.6s-1-0.2-1.3-0.6s-0.5-0.9-0.5-1.5v-3.8h-0.1l-4.4,4.7c-0.7,0.7-1.3,1.1-1.7,1.1c-0.5,0-0.9-0.2-1.2-0.5
		c-0.3-0.3-0.5-0.7-0.5-1.2c0-0.5,0.2-0.9,0.5-1.2l4.4-4.3l-3.4-3.4c-0.5-0.5-0.7-1-0.7-1.4c0-0.4,0.1-0.8,0.4-1.1
		c0.3-0.3,0.7-0.5,1.1-0.5c0.6,0,1.2,0.3,1.6,0.8l4,4.6v-3.3c0-0.6,0.2-1.1,0.5-1.5c0.3-0.4,0.8-0.6,1.3-0.6s1,0.2,1.3,0.6
		c0.3,0.4,0.5,0.9,0.5,1.5v3.3l4-4.6c0.5-0.5,1-0.8,1.6-0.8c0.4,0,0.8,0.2,1.1,0.5c0.3,0.3,0.4,0.7,0.4,1.1c0,0.5-0.2,0.9-0.7,1.4
		l-3.4,3.4l4.4,4.3c0.3,0.3,0.5,0.7,0.5,1.2C104.3,192.8,104.1,193.2,103.8,193.5z"/>
	<path class="st2" d="M119.4,195.7c0,0.6-0.2,1.1-0.5,1.5c-0.3,0.4-0.8,0.6-1.3,0.6s-1-0.2-1.3-0.6c-0.3-0.4-0.5-0.9-0.5-1.5v-1.8
		H108v1.8c0,0.6-0.2,1.1-0.5,1.5c-0.3,0.4-0.8,0.6-1.3,0.6s-1-0.2-1.3-0.6c-0.3-0.4-0.5-0.9-0.5-1.5v-3c0-0.6,0.2-1.1,0.5-1.5
		c0.3-0.4,0.8-0.6,1.3-0.6h0.2c0.6-2.1,0.9-4.8,0.9-8.2c0-1.3,0.6-2,1.8-2h6.4c0.5,0,1,0.2,1.3,0.6c0.3,0.4,0.5,0.9,0.5,1.5v8.2h0.2
		c0.5,0,1,0.2,1.3,0.6c0.3,0.4,0.5,0.9,0.5,1.5V195.7z M113.9,183.4h-3.1c-0.1,3-0.4,5.5-0.9,7.5h4V183.4z"/>
	<path class="st2" d="M119.5,182.8c-0.1-0.3-0.2-0.6-0.2-0.9c0-0.4,0.2-0.8,0.6-1.1c0.4-0.3,0.7-0.4,1.1-0.4c0.9,0,1.5,0.4,1.8,1.3
		l2.5,6.8l2.7-6.8c0.3-0.9,0.9-1.3,1.8-1.3c0.4,0,0.8,0.1,1.1,0.4c0.4,0.3,0.6,0.7,0.6,1.1c0,0.4-0.1,0.7-0.2,0.9l-6.1,15.1
		c-0.4,1-1,1.4-1.7,1.4c-0.6,0-1.1-0.2-1.4-0.5c-0.3-0.3-0.5-0.7-0.5-1.1c0-0.3,0.1-0.7,0.2-1.1l1.6-3.9L119.5,182.8z"/>
	<path class="st2" d="M148.6,192.1c-1.2,1.4-2.8,2.1-4.7,2.1c-1.7,0-3.1-0.5-4.3-1.6c-1.1-1.1-1.8-2.4-2.1-4.1h-1.4v3.5
		c0,0.6-0.2,1.1-0.5,1.5c-0.3,0.4-0.8,0.6-1.3,0.6c-0.5,0-1-0.2-1.3-0.6c-0.3-0.4-0.5-0.9-0.5-1.5v-9.7c0-0.6,0.2-1.1,0.5-1.5
		c0.3-0.4,0.8-0.6,1.3-0.6c0.5,0,1,0.2,1.3,0.6c0.3,0.4,0.5,0.9,0.5,1.5v3h1.6c0.4-1.5,1.1-2.7,2.2-3.6c1.2-1,2.5-1.5,4-1.5
		c1.9,0,3.4,0.7,4.7,2.1c1.2,1.4,1.8,3,1.8,4.9C150.4,189.1,149.8,190.8,148.6,192.1z M146.1,184.7c-0.5-0.8-1.3-1.2-2.2-1.2
		c-0.9,0-1.7,0.4-2.2,1.2c-0.5,0.7-0.7,1.5-0.7,2.5c0,1,0.2,1.8,0.7,2.5c0.5,0.8,1.2,1.2,2.2,1.2c0.9,0,1.6-0.4,2.2-1.2
		c0.5-0.7,0.7-1.5,0.7-2.5C146.8,186.2,146.6,185.4,146.1,184.7z"/>
	<path class="st2" d="M170.7,192c0,0.6-0.2,1.1-0.5,1.5c-0.3,0.4-0.8,0.6-1.3,0.6c-0.5,0-1-0.2-1.3-0.6c-0.3-0.4-0.5-0.9-0.5-1.5
		v-3.5h-4.7v3.5c0,0.6-0.2,1.1-0.5,1.5c-0.3,0.4-0.8,0.6-1.3,0.6c-0.5,0-1-0.2-1.3-0.6c-0.3-0.4-0.5-0.9-0.5-1.5v-9.7
		c0-0.6,0.2-1.1,0.5-1.5c0.3-0.4,0.8-0.6,1.3-0.6c0.5,0,1,0.2,1.3,0.6c0.3,0.4,0.5,0.9,0.5,1.5v3h4.7v-3c0-0.6,0.2-1.1,0.5-1.5
		c0.3-0.4,0.8-0.6,1.3-0.6c0.5,0,1,0.2,1.3,0.6c0.3,0.4,0.5,0.9,0.5,1.5V192z"/>
	<path class="st2" d="M175.7,188.4c0.1,0.9,0.5,1.5,1.2,2c0.6,0.4,1.4,0.6,2.2,0.6c0.7,0,1.5-0.2,2.4-0.7c0.9-0.5,1.5-0.7,1.7-0.7
		c0.4,0,0.7,0.2,1,0.5s0.5,0.7,0.5,1.1c0,0.8-0.6,1.5-1.9,2.1c-1.3,0.6-2.6,1-4,1c-2,0-3.7-0.7-4.9-2c-1.2-1.3-1.9-3-1.9-5
		c0-1.9,0.6-3.5,1.8-4.9c1.3-1.4,2.8-2.1,4.7-2.1c1.9,0,3.4,0.7,4.7,2.2c1.2,1.3,1.8,2.8,1.8,4.4c0,1.1-0.5,1.6-1.6,1.6H175.7z
		 M181.4,186c-0.2-1.8-1.2-2.8-2.9-2.8c-0.8,0-1.4,0.3-2,0.8c-0.5,0.5-0.8,1.2-0.9,2H181.4z"/>
	<path class="st2" d="M200.4,195.7c0,0.6-0.2,1.1-0.5,1.5c-0.3,0.4-0.8,0.6-1.3,0.6s-1-0.2-1.3-0.6c-0.3-0.4-0.5-0.9-0.5-1.5v-1.8
		H189v1.8c0,0.6-0.2,1.1-0.5,1.5c-0.3,0.4-0.8,0.6-1.3,0.6s-1-0.2-1.3-0.6c-0.3-0.4-0.5-0.9-0.5-1.5v-3c0-0.6,0.2-1.1,0.5-1.5
		c0.3-0.4,0.8-0.6,1.3-0.6h0.2c0.6-2.1,0.9-4.8,0.9-8.2c0-1.3,0.6-2,1.8-2h6.4c0.5,0,1,0.2,1.3,0.6c0.3,0.4,0.5,0.9,0.5,1.5v8.2h0.2
		c0.5,0,1,0.2,1.3,0.6c0.3,0.4,0.5,0.9,0.5,1.5V195.7z M194.9,183.4h-3.1c-0.1,3-0.4,5.5-0.9,7.5h4V183.4z"/>
	<path class="st2" d="M204.3,188.4c0.1,0.9,0.5,1.5,1.2,2c0.6,0.4,1.4,0.6,2.2,0.6c0.7,0,1.5-0.2,2.4-0.7c0.9-0.5,1.5-0.7,1.7-0.7
		c0.4,0,0.7,0.2,1,0.5s0.5,0.7,0.5,1.1c0,0.8-0.6,1.5-1.9,2.1c-1.3,0.6-2.6,1-4,1c-2,0-3.7-0.7-4.9-2c-1.2-1.3-1.9-3-1.9-5
		c0-1.9,0.6-3.5,1.8-4.9c1.3-1.4,2.8-2.1,4.7-2.1c1.9,0,3.4,0.7,4.7,2.2c1.2,1.3,1.8,2.8,1.8,4.4c0,1.1-0.5,1.6-1.6,1.6H204.3z
		 M209.9,186c-0.2-1.8-1.2-2.8-2.9-2.8c-0.8,0-1.4,0.3-2,0.8c-0.5,0.5-0.8,1.2-0.9,2H209.9z"/>
	<path class="st2" d="M216.5,182.5c0-0.6,0.2-1.1,0.5-1.5c0.3-0.4,0.8-0.6,1.3-0.6h6.7c0.5,0,1,0.2,1.3,0.6c0.3,0.4,0.5,0.9,0.5,1.5
		v9.5c0,0.6-0.2,1.1-0.5,1.5c-0.3,0.4-0.8,0.6-1.3,0.6c-0.5,0-1-0.2-1.3-0.6c-0.3-0.4-0.5-0.9-0.5-1.5v-8.4h-3.1v3.7
		c0,2.1-0.4,3.8-1.3,5c-0.8,1.1-1.9,1.7-3.3,1.7c-0.5,0-0.9-0.2-1.2-0.5c-0.3-0.3-0.4-0.7-0.4-1.1c0-0.8,0.4-1.2,1.1-1.5
		c1-0.3,1.5-1.3,1.5-3.1V182.5z"/>
	<path class="st2" d="M245,192.1c-1.2,1.4-2.8,2.1-4.7,2.1c-1.7,0-3.1-0.5-4.3-1.6c-1.1-1.1-1.8-2.4-2.1-4.1h-1.4v3.5
		c0,0.6-0.2,1.1-0.5,1.5c-0.3,0.4-0.8,0.6-1.3,0.6c-0.5,0-1-0.2-1.3-0.6c-0.3-0.4-0.5-0.9-0.5-1.5v-9.7c0-0.6,0.2-1.1,0.5-1.5
		c0.3-0.4,0.8-0.6,1.3-0.6c0.5,0,1,0.2,1.3,0.6c0.3,0.4,0.5,0.9,0.5,1.5v3h1.6c0.4-1.5,1.1-2.7,2.2-3.6c1.2-1,2.5-1.5,4-1.5
		c1.9,0,3.4,0.7,4.7,2.1c1.2,1.4,1.8,3,1.8,4.9C246.8,189.1,246.2,190.8,245,192.1z M242.5,184.7c-0.5-0.8-1.3-1.2-2.2-1.2
		c-0.9,0-1.7,0.4-2.2,1.2c-0.5,0.7-0.7,1.5-0.7,2.5c0,1,0.2,1.8,0.7,2.5c0.5,0.8,1.2,1.2,2.2,1.2c0.9,0,1.6-0.4,2.2-1.2
		c0.5-0.7,0.7-1.5,0.7-2.5C243.2,186.2,242.9,185.4,242.5,184.7z"/>
</g>
</svg>
