<?xml version="1.0" encoding="utf-8"?>
<!-- Generator: Adobe Illustrator 25.2.3, SVG Export Plug-In . SVG Version: 6.00 Build 0)  -->
<svg version="1.1" id="Layer_1" xmlns="http://www.w3.org/2000/svg" xmlns:xlink="http://www.w3.org/1999/xlink" x="0px" y="0px"
	 viewBox="0 0 300.9 245.5" style="enable-background:new 0 0 300.9 245.5;" xml:space="preserve">
<style type="text/css">
	.st0{fill:#FFF118;}
	.st1{fill:#FFF100;}
	.st2{fill:#FFFFFF;}
	.st3{fill-rule:evenodd;clip-rule:evenodd;fill:#00A854;}
	.st4{fill:#00A854;}
</style>
<g>
	<path class="st0" d="M286.2,155H14.7C6.6,155,0,148.4,0,140.3V85.4h300.9v54.9C300.9,148.4,294.3,155,286.2,155z"/>
	<g>
		<g>
			<g>
				<path class="st1" d="M39.2,76.7h91.6V62.4c0,0-9.5,0.1-12.7,0c-12.2-0.6-37.9-3.5-47.9-9.7c-2.3-1.4-3-5.9-3-5.9l-20.4,0.1
					c0,0-2.7,0-5.7,3.6c-0.7,0.8-1.9,3.7-1.9,3.7V76.7z"/>
				<path class="st1" d="M265.8,76.7h-91.6V62.4c0,0,9.5,0.1,12.7,0c12.2-0.6,37.9-3.5,47.9-9.7c2.3-1.4,3-5.9,3-5.9l20.4,0.1
					c0,0,2.7,0,5.7,3.6c0.7,0.8,1.9,3.7,1.9,3.7V76.7z"/>
			</g>
			<path class="st2" d="M214.7,41.6l2.2-10.2c0,0-9.7,9.1-22.4,15.2c-9.4,4.5-21.5,6.3-26.8,6.9c-0.9,0.1-1.7,0.2-2.4,0.3v-6.3
				c4.6-1.1,10-2.5,13.4-3.6c6.9-2.2,19.9-8.8,22.4-15.6c2.6-6.8-3.7-11.7-6.4-12.2s-8.9,0.3-8.9,0.3s2.9-4,2.5-7.6S185.1,0,179.7,0
				s-9.7,1.1-13.9,8s-8.5,18.7-9.8,24.1c-0.8,3.4-2.3,9.2-3.3,13c-1-3.8-2.5-9.6-3.3-13c-1.3-5.4-5.6-17.2-9.8-24.1s-8.6-8-13.9-8
				c-5.3,0-8.1,5.3-8.6,8.8c-0.4,3.6,2.5,7.6,2.5,7.6s-6.2-0.8-8.9-0.3c-2.7,0.5-9,5.4-6.4,12.2s15.6,13.4,22.4,15.6
				c3.2,1.1,8.3,2.3,12.8,3.4v6.5c-0.8-0.1-1.6-0.2-2.4-0.3c-5.3-0.6-17.5-2.4-26.8-6.9c-12.7-6.1-22.4-15.2-22.4-15.2l2.2,10.2
				l-13.8,5.2c0,0,3.2,1.3,7.2,2.5s16,3.8,24.1,5c6.4,0.9,24.5,1,31.8,1v21.3H165V55.2c7.3,0,25.4-0.1,31.8-1
				c8.1-1.2,20.1-3.8,24.1-5s7.2-2.5,7.2-2.5L214.7,41.6z M167.2,22.4c5.9-10.1,7.7-11.5,12.8-10.2c5.2,1.3,1.6,7.9,1.6,7.9
				s6.9-1.2,7.4,2.9c0.5,4.2-2.8,8.4-7,11.2c-4.3,2.9-11.4,7.1-16,8.7c-4.6,1.6-7.5,2.7-9.4,2.7C157.8,42.8,161.4,32.5,167.2,22.4z
				 M123.6,34.4c-4.3-2.9-7.6-7-7-11.2c0.5-4.2,7.4-2.9,7.4-2.9s-3.6-6.6,1.6-7.9c5.2-1.3,6.9,0.1,12.8,10.2S147.8,43,149,45.9
				c-1.9,0-4.7-1.1-9.4-2.7C135,41.5,127.9,37.2,123.6,34.4z"/>
		</g>
		<path class="st1" d="M243,85.4H62H39.2v22.8v89.4v25.2c0,12.6,10.2,22.8,22.8,22.8h181c12.6,0,22.8-10.2,22.8-22.8v-25.2v-89.4
			V85.4H243z M256.3,222.7c0,7.3-6,13.3-13.3,13.3H62c-7.3,0-13.3-6-13.3-13.3V94.9h207.6L256.3,222.7L256.3,222.7z"/>
	</g>
	<g>
		<g id="Rounded_Rectangle_12_copy">
			<g>
				<path class="st3" d="M286.1,97.2h-19.3c-2.2,0-4,1.8-4,4s1.8,4,4,4h19.3c2.2,0,4-1.8,4-4S288.3,97.2,286.1,97.2z"/>
			</g>
		</g>
		<g>
			<path class="st4" d="M17.9,134.6v-28.7h-3.4c-1.3,0-2.3-0.4-2.9-1.2c-0.6-0.8-1-1.7-1-2.8c0-1.1,0.4-2,1.1-2.8
				c0.7-0.8,1.6-1.2,2.8-1.2h8.1c1.2,0,2.1,0.4,2.8,1.1c0.7,0.8,1,1.7,1,2.9v32.6c0,1.4-0.4,2.5-1.2,3.3c-0.8,0.8-1.8,1.2-3.1,1.2
				s-2.3-0.4-3.1-1.2C18.3,137.1,17.9,136,17.9,134.6z"/>
			<path class="st4" d="M66.5,137.4c-2.1,1.3-4.5,1.9-7.2,1.9s-5.1-0.7-7.2-1.9c-2.1-1.3-3.6-3-4.7-5.1c-1.1-2.1-1.9-4.4-2.4-6.7
				c-0.5-2.3-0.8-4.7-0.8-7.3c0-2.5,0.3-4.9,0.8-7.3c0.5-2.3,1.3-4.6,2.4-6.7c1.1-2.1,2.7-3.9,4.7-5.1c2.1-1.3,4.5-1.9,7.2-1.9
				s5.1,0.7,7.2,1.9c2.1,1.3,3.6,3,4.7,5.1s1.9,4.4,2.4,6.7c0.5,2.3,0.8,4.7,0.8,7.3c0,2.5-0.3,4.9-0.8,7.3
				c-0.5,2.3-1.3,4.6-2.4,6.7C70.1,134.4,68.5,136.1,66.5,137.4z M53,118.3c0,8.8,2.1,13.3,6.2,13.3s6.2-4.4,6.2-13.3
				S63.3,105,59.2,105S53,109.5,53,118.3z"/>
			<path class="st4" d="M99.3,137.4c-2.1,1.3-4.5,1.9-7.2,1.9s-5.1-0.7-7.2-1.9c-2.1-1.3-3.6-3-4.7-5.1s-1.9-4.4-2.4-6.7
				c-0.5-2.3-0.8-4.7-0.8-7.3c0-2.5,0.3-4.9,0.8-7.3c0.5-2.3,1.3-4.6,2.4-6.7s2.7-3.9,4.7-5.1c2.1-1.3,4.5-1.9,7.2-1.9
				s5.1,0.7,7.2,1.9c2.1,1.3,3.6,3,4.7,5.1s1.9,4.4,2.4,6.7c0.5,2.3,0.8,4.7,0.8,7.3c0,2.5-0.3,4.9-0.8,7.3
				c-0.5,2.3-1.3,4.6-2.4,6.7C103,134.4,101.4,136.1,99.3,137.4z M85.9,118.3c0,8.8,2.1,13.3,6.2,13.3c4.2,0,6.2-4.4,6.2-13.3
				S96.2,105,92.1,105C87.9,105.1,85.9,109.5,85.9,118.3z"/>
			<path class="st4" d="M132.1,137.4c-2.1,1.3-4.5,1.9-7.2,1.9s-5.1-0.7-7.2-1.9c-2.1-1.3-3.6-3-4.7-5.1s-1.9-4.4-2.4-6.7
				c-0.5-2.3-0.8-4.7-0.8-7.3c0-2.5,0.3-4.9,0.8-7.3c0.5-2.3,1.3-4.6,2.4-6.7s2.7-3.9,4.7-5.1c2.1-1.3,4.5-1.9,7.2-1.9
				s5.1,0.7,7.2,1.9c2.1,1.3,3.6,3,4.7,5.1c1.1,2.1,1.9,4.4,2.4,6.7c0.5,2.3,0.8,4.7,0.8,7.3c0,2.5-0.3,4.9-0.8,7.3
				c-0.5,2.3-1.3,4.6-2.4,6.7C135.8,134.4,134.2,136.1,132.1,137.4z M118.7,118.3c0,8.8,2.1,13.3,6.2,13.3c4.1,0,6.2-4.4,6.2-13.3
				S129,105,124.9,105S118.7,109.5,118.7,118.3z"/>
			<path class="st4" d="M177.4,137.4c-2.1,1.3-4.5,1.9-7.2,1.9s-5.1-0.7-7.2-1.9c-2.1-1.3-3.6-3-4.7-5.1c-1.1-2.1-1.9-4.4-2.4-6.7
				c-0.5-2.3-0.8-4.7-0.8-7.3c0-2.5,0.3-4.9,0.8-7.3c0.5-2.3,1.3-4.6,2.4-6.7c1.1-2.1,2.7-3.9,4.7-5.1c2.1-1.3,4.5-1.9,7.2-1.9
				s5.1,0.7,7.2,1.9c2.1,1.3,3.6,3,4.7,5.1c1.1,2.1,1.9,4.4,2.4,6.7c0.5,2.3,0.8,4.7,0.8,7.3c0,2.5-0.3,4.9-0.8,7.3
				c-0.5,2.3-1.3,4.6-2.4,6.7C181.1,134.4,179.5,136.1,177.4,137.4z M164,118.3c0,8.8,2.1,13.3,6.2,13.3c4.2,0,6.2-4.4,6.2-13.3
				s-2.1-13.3-6.2-13.3C166.1,105.1,164,109.5,164,118.3z"/>
			<path class="st4" d="M210.3,137.4c-2.1,1.3-4.5,1.9-7.2,1.9s-5.1-0.7-7.2-1.9c-2.1-1.3-3.6-3-4.7-5.1c-1.1-2.1-1.9-4.4-2.4-6.7
				c-0.5-2.3-0.8-4.7-0.8-7.3c0-2.5,0.3-4.9,0.8-7.3c0.5-2.3,1.3-4.6,2.4-6.7c1.1-2.1,2.7-3.9,4.7-5.1c2.1-1.3,4.5-1.9,7.2-1.9
				s5.1,0.7,7.2,1.9c2.1,1.3,3.6,3,4.7,5.1c1.1,2.1,1.9,4.4,2.4,6.7c0.5,2.3,0.8,4.7,0.8,7.3c0,2.5-0.3,4.9-0.8,7.3
				c-0.5,2.3-1.3,4.6-2.4,6.7C213.9,134.4,212.3,136.1,210.3,137.4z M196.8,118.3c0,8.8,2.1,13.3,6.2,13.3c4.2,0,6.2-4.4,6.2-13.3
				S207.1,105,203,105C198.9,105.1,196.8,109.5,196.8,118.3z"/>
			<path class="st4" d="M243.1,137.4c-2.1,1.3-4.5,1.9-7.2,1.9s-5.1-0.7-7.2-1.9c-2.1-1.3-3.6-3-4.7-5.1c-1.1-2.1-1.9-4.4-2.4-6.7
				c-0.5-2.3-0.8-4.7-0.8-7.3c0-2.5,0.3-4.9,0.8-7.3c0.5-2.3,1.3-4.6,2.4-6.7c1.1-2.1,2.7-3.9,4.7-5.1c2.1-1.3,4.5-1.9,7.2-1.9
				s5.1,0.7,7.2,1.9c2.1,1.3,3.6,3,4.7,5.1c1.1,2.1,1.9,4.4,2.4,6.7c0.5,2.3,0.8,4.7,0.8,7.3c0,2.5-0.3,4.9-0.8,7.3
				c-0.5,2.3-1.3,4.6-2.4,6.7C246.7,134.4,245.1,136.1,243.1,137.4z M229.6,118.3c0,8.8,2.1,13.3,6.2,13.3s6.2-4.4,6.2-13.3
				s-2.1-13.3-6.2-13.3S229.6,109.5,229.6,118.3z"/>
			<path class="st4" d="M272.7,134.5v-19h-5.8c-1.1,0-2-0.3-2.6-1c-0.6-0.6-1-1.5-1-2.6c0-1,0.3-1.9,1-2.6s1.5-1,2.6-1h19.8
				c1.1,0,2.1,0.3,2.8,0.9c0.7,0.6,1.1,1.5,1.1,2.7s-0.4,2.1-1.1,2.7s-1.7,0.9-2.8,0.9h-5.8v19c0,1.4-0.4,2.5-1.1,3.3
				c-0.8,0.8-1.8,1.3-3,1.3s-2.2-0.4-3-1.3C273.1,136.9,272.7,135.8,272.7,134.5z"/>
		</g>
	</g>
</g>
<g>
	<path class="st2" d="M73,196.9c-2,0-3.6-0.5-4.8-1.5c-1.2-1-1.9-2.4-1.9-4.3c0-4.2,3.6-6.2,10.9-6.2v-1.3c0-0.8-0.7-1.3-2.1-1.3
		c-1.1,0-2,0.3-2.9,0.8c-0.8,0.6-1.4,0.8-1.7,0.8c-1.4,0-2.1-0.7-2.1-2c0-0.9,0.8-1.8,2.3-2.5c1.4-0.7,2.9-1.1,4.4-1.1
		c4.6,0,6.9,1.8,6.9,5.4v10.4c0,0.7-0.2,1.3-0.6,1.8c-0.4,0.5-1,0.8-1.7,0.8c-1.2,0-2-0.6-2.3-1.8C76.6,196.3,75.1,196.9,73,196.9z
		 M73.8,192.9c2.4,0,3.6-1.2,3.6-3.6v-0.8c-2.3,0-3.7,0.1-4.4,0.2c-1.4,0.4-2.2,1.2-2.2,2.4C70.9,192.3,71.9,192.9,73.8,192.9z"/>
	<path class="st2" d="M100.4,194.1c0,0.8-0.2,1.4-0.7,1.9c-0.4,0.5-1,0.7-1.7,0.7c-0.7,0-1.3-0.2-1.7-0.7c-0.4-0.5-0.7-1.1-0.7-1.9
		V183h-6.2v11.1c0,0.8-0.2,1.4-0.7,1.9c-0.4,0.5-1,0.7-1.7,0.7c-0.7,0-1.3-0.2-1.7-0.7c-0.4-0.5-0.7-1.1-0.7-1.9v-12.6
		c0-0.8,0.2-1.4,0.7-1.9c0.4-0.5,1-0.7,1.7-0.7h11c0.7,0,1.3,0.2,1.7,0.7c0.4,0.5,0.7,1.1,0.7,1.9V194.1z"/>
	<path class="st2" d="M107.3,183h-3.4c-1.4,0-2.1-0.7-2.1-2.1c0-0.6,0.2-1.1,0.6-1.5c0.4-0.4,0.9-0.6,1.5-0.6h11.5
		c1.5,0,2.3,0.7,2.3,2.1c0,1.4-0.8,2.1-2.3,2.1h-3.4v11.1c0,0.8-0.2,1.4-0.7,1.9c-0.4,0.5-1,0.7-1.7,0.7c-0.7,0-1.3-0.2-1.7-0.7
		c-0.4-0.5-0.7-1.1-0.7-1.9V183z"/>
	<path class="st2" d="M124.1,196.9c-2,0-3.6-0.5-4.8-1.5c-1.2-1-1.9-2.4-1.9-4.3c0-4.2,3.6-6.2,10.9-6.2v-1.3c0-0.8-0.7-1.3-2.1-1.3
		c-1.1,0-2,0.3-2.9,0.8c-0.8,0.6-1.4,0.8-1.7,0.8c-1.4,0-2.1-0.7-2.1-2c0-0.9,0.8-1.8,2.3-2.5c1.4-0.7,2.9-1.1,4.4-1.1
		c4.6,0,6.9,1.8,6.9,5.4v10.4c0,0.7-0.2,1.3-0.6,1.8c-0.4,0.5-1,0.8-1.7,0.8c-1.2,0-2-0.6-2.3-1.8
		C127.8,196.3,126.3,196.9,124.1,196.9z M125,192.9c2.4,0,3.6-1.2,3.6-3.6v-0.8c-2.3,0-3.7,0.1-4.4,0.2c-1.4,0.4-2.2,1.2-2.2,2.4
		C122.1,192.3,123.1,192.9,125,192.9z"/>
	<path class="st2" d="M158,183c-0.4,0.5-0.8,0.8-1.3,0.8c-0.4,0-1-0.2-1.8-0.5c-0.8-0.3-1.5-0.5-2-0.5c-1.3,0-2.3,0.5-3,1.5
		c-0.7,0.9-1,2-1,3.4c0,1.3,0.3,2.4,1,3.3c0.8,1,1.8,1.5,3,1.5c0.4,0,1.1-0.2,2-0.5c0.9-0.3,1.4-0.5,1.5-0.5c0.6,0,1,0.2,1.5,0.6
		c0.4,0.4,0.6,0.9,0.6,1.5c0,1.1-0.8,1.9-2.3,2.6c-1.2,0.5-2.4,0.7-3.6,0.7c-2.5,0-4.6-0.9-6.2-2.7c-1.6-1.8-2.4-3.9-2.4-6.5
		c0-2.5,0.8-4.7,2.4-6.5c1.7-1.9,3.7-2.8,6.2-2.8c1.3,0,2.5,0.2,3.6,0.6c1.5,0.6,2.2,1.4,2.2,2.4C158.5,182,158.3,182.5,158,183z"/>
	<path class="st2" d="M166.2,196.9c-2,0-3.6-0.5-4.8-1.5c-1.2-1-1.9-2.4-1.9-4.3c0-4.2,3.6-6.2,10.9-6.2v-1.3c0-0.8-0.7-1.3-2.1-1.3
		c-1.1,0-2,0.3-2.9,0.8c-0.8,0.6-1.4,0.8-1.7,0.8c-1.4,0-2.1-0.7-2.1-2c0-0.9,0.8-1.8,2.3-2.5c1.4-0.7,2.9-1.1,4.4-1.1
		c4.6,0,6.9,1.8,6.9,5.4v10.4c0,0.7-0.2,1.3-0.6,1.8c-0.4,0.5-1,0.8-1.7,0.8c-1.2,0-2-0.6-2.3-1.8
		C169.8,196.3,168.3,196.9,166.2,196.9z M167,192.9c2.4,0,3.6-1.2,3.6-3.6v-0.8c-2.3,0-3.7,0.1-4.4,0.2c-1.4,0.4-2.2,1.2-2.2,2.4
		C164.1,192.3,165.1,192.9,167,192.9z"/>
	<path class="st2" d="M193.6,194.1c0,0.8-0.2,1.4-0.7,1.9c-0.4,0.5-1,0.7-1.7,0.7s-1.3-0.2-1.7-0.7c-0.4-0.5-0.7-1.1-0.7-1.9V187
		h-0.1l-6.6,8.6c-0.6,0.7-1.2,1.1-2,1.1c-0.7,0-1.3-0.2-1.7-0.7c-0.4-0.5-0.7-1.1-0.7-1.9v-12.8c0-0.8,0.2-1.4,0.7-1.9
		c0.4-0.5,1-0.7,1.7-0.7c0.7,0,1.3,0.2,1.7,0.7c0.4,0.5,0.7,1.1,0.7,1.9v6.9h0.1l6.1-8.1c0.8-1,1.6-1.5,2.4-1.5
		c0.7,0,1.3,0.2,1.7,0.7c0.4,0.5,0.7,1.1,0.7,1.9V194.1z M182.3,172.4c0.7,0,1.3,0.4,1.8,1.1c0.5,0.8,1.1,1.1,1.8,1.1
		c0.6,0,1.1-0.4,1.7-1.1c0.6-0.8,1.2-1.1,2-1.1c0.4,0,0.8,0.2,1.1,0.7c0.3,0.4,0.4,0.9,0.4,1.3c0,1.1-0.6,2-1.8,2.6
		c-1,0.6-2.1,0.8-3.3,0.8c-1.2,0-2.4-0.3-3.3-0.8c-1.2-0.6-1.8-1.5-1.8-2.7C180.8,173.1,181.3,172.4,182.3,172.4z"/>
	<path class="st2" d="M198.8,196.5c-0.7,0-1.3-0.2-1.7-0.7c-0.4-0.5-0.7-1.1-0.7-1.9v-12.6c0-0.8,0.2-1.4,0.7-1.9
		c0.4-0.5,1-0.7,1.7-0.7c0.7,0,1.3,0.2,1.7,0.7c0.4,0.5,0.7,1.1,0.7,1.9v3.9h3.4c2,0,3.5,0.5,4.6,1.4c1.2,1,1.8,2.4,1.8,4.3
		c0,1.8-0.6,3.2-1.7,4.2c-1.1,1-2.5,1.5-4.3,1.5H198.8z M201.2,192.6h3.2c1.2,0,1.9-0.6,1.9-1.8c0-1.1-0.7-1.6-2.1-1.6h-3V192.6z
		 M213.4,181.3c0-0.8,0.2-1.4,0.7-1.9c0.4-0.5,1-0.7,1.7-0.7s1.3,0.2,1.7,0.7c0.4,0.5,0.7,1.1,0.7,1.9v12.8c0,0.8-0.2,1.4-0.7,1.9
		c-0.4,0.5-1,0.7-1.7,0.7s-1.3-0.2-1.7-0.7c-0.4-0.5-0.7-1.1-0.7-1.9V181.3z"/>
	<path class="st2" d="M236.6,194.1c0,0.8-0.2,1.4-0.7,1.9c-0.4,0.5-1,0.7-1.7,0.7s-1.3-0.2-1.7-0.7c-0.4-0.5-0.7-1.1-0.7-1.9v-4.7
		h-6.2v4.7c0,0.8-0.2,1.4-0.7,1.9c-0.4,0.5-1,0.7-1.7,0.7c-0.7,0-1.3-0.2-1.7-0.7c-0.4-0.5-0.7-1.1-0.7-1.9v-12.8
		c0-0.8,0.2-1.4,0.7-1.9c0.4-0.5,1-0.7,1.7-0.7c0.7,0,1.3,0.2,1.7,0.7c0.4,0.5,0.7,1.1,0.7,1.9v3.9h6.2v-3.9c0-0.8,0.2-1.4,0.7-1.9
		c0.4-0.5,1-0.7,1.7-0.7s1.3,0.2,1.7,0.7c0.4,0.5,0.7,1.1,0.7,1.9V194.1z"/>
</g>
</svg>
