<?xml version="1.0" encoding="utf-8"?>
<!-- Generator: Adobe Illustrator 25.2.3, SVG Export Plug-In . SVG Version: 6.00 Build 0)  -->
<svg version="1.1" id="Layer_1" xmlns="http://www.w3.org/2000/svg" xmlns:xlink="http://www.w3.org/1999/xlink" x="0px" y="0px"
	 viewBox="0 0 195.1 241.1" style="enable-background:new 0 0 195.1 241.1;" xml:space="preserve">
<style type="text/css">
	.st0{fill:#FFFFFF;}
	.st1{fill:none;}
</style>
<g>
	<path class="st0" d="M115.8,57.3c-1.2-1.2-3.2-1.2-4.5,0L100.8,68V36c0-1.7-1.4-3.2-3.2-3.2s-3.2,1.4-3.2,3.2V68L83.9,57.3
		c-1.2-1.2-3.2-1.3-4.5,0c-1.2,1.2-1.3,3.2,0,4.5l16,16.2c0,0,0,0,0,0c0.1,0.1,0.3,0.3,0.5,0.4c0,0,0,0,0,0c0.2,0.1,0.4,0.2,0.5,0.3
		c0,0,0,0,0.1,0c0.2,0.1,0.3,0.1,0.5,0.2c0.2,0,0.4,0.1,0.6,0.1s0.4,0,0.6-0.1c0.2,0,0.4-0.1,0.5-0.2c0,0,0,0,0.1,0
		c0.2-0.1,0.4-0.2,0.5-0.3c0,0,0,0,0,0c0.2-0.1,0.3-0.2,0.5-0.4c0,0,0,0,0,0l16-16.2C117.1,60.5,117.1,58.5,115.8,57.3z"/>
	<path class="st0" d="M124,97.6H72.6c-2.7,0-4.8,2.2-4.8,4.8v10.3c0,2.7,2.2,4.8,4.8,4.8H124c2.7,0,4.8-2.2,4.8-4.8v-10.3
		C128.8,99.8,126.6,97.6,124,97.6z"/>
	<g>
		<path class="st1" d="M141.4,122.8l-8.4,3.8c-2.6,1.2-3.7,4.2-2.5,6.7c0.6,1.2,1.6,2.2,2.8,2.7c1.3,0.5,2.7,0.4,3.9-0.1l8.4-3.8
			c2.6-1.2,3.7-4.2,2.5-6.7c-0.8-1.9-2.7-3-4.6-3C142.8,122.3,142.1,122.5,141.4,122.8z"/>
		<path class="st1" d="M150.9,106.8c1.2-0.6,2.2-1.6,2.7-2.8c0.5-1.3,0.4-2.7-0.1-3.9c-1.2-2.6-4.2-3.7-6.7-2.5l-4.1,1.8v11.2
			L150.9,106.8z"/>
		<path class="st1" d="M145.2,160.6c-0.5-0.2-1.1-0.3-1.6-0.3c-0.6,0-1.3,0.1-1.9,0.4l-5.7,2.6c-1.1,0.5-2,1.4-2.4,2.6
			c-0.4,1.1-0.4,2.4,0.1,3.5l0.4,1c0.5,1.1,1.4,2,2.6,2.4c1.1,0.4,2.4,0.4,3.5-0.1l5.7-2.6c1.1-0.5,2-1.4,2.4-2.6
			c0.4-1.1,0.4-2.4-0.1-3.5l-0.4-1C147.3,161.9,146.4,161,145.2,160.6z"/>
		<path class="st1" d="M143.5,141.1c-0.7,0-1.4,0.1-2.1,0.5l-11.9,5.4c-2.6,1.2-3.7,4.2-2.5,6.7c1.2,2.6,4.2,3.7,6.7,2.5l11.9-5.4
			c2.6-1.2,3.7-4.2,2.5-6.7C147.3,142.2,145.4,141.1,143.5,141.1z"/>
		<path class="st0" d="M142.6,119.8l-6,2.3v-3.7l-6.1,2.7c-5.6,2.5-8.1,9.1-5.6,14.7c0.9,2,2.3,3.6,4.1,4.7l9.9-4.5
			c3.5-1.6,7.5-1.2,10.5,0.8c4.6-2.9,6.5-8.9,4.2-14c-1.2-2.7-3.4-4.8-6.2-5.8c-1-0.4-2.1-0.6-3.1-0.7c-0.6,0.2-1.1,0.4-1.7,0.5
			V119.8z M148.1,125.3c1.2,2.6,0,5.6-2.5,6.7l-8.4,3.8c-1.2,0.6-2.6,0.6-3.9,0.1c-1.3-0.5-2.3-1.4-2.8-2.7c-1.2-2.6,0-5.6,2.5-6.7
			l8.4-3.8c0.7-0.3,1.4-0.5,2.1-0.5C145.4,122.3,147.3,123.5,148.1,125.3z"/>
		<path class="st0" d="M139.7,141.4c-1.5,0.7-3,1-4.6,1c-1.3,0-2.7-0.2-4-0.7c-0.8-0.3-1.5-0.7-2.1-1.1l-2,0.9
			c-5.6,2.5-8.1,9.1-5.6,14.7c1.2,2.7,3.4,4.8,6.2,5.8c0.3,0.1,0.7,0.2,1,0.3c1.1-2,2.8-3.6,4.9-4.5l5.7-2.6c3.3-1.5,7-1.1,9.8,0.6
			c4.9-2.8,6.9-9,4.6-14.2c-0.9-2.1-2.4-3.7-4.2-4.8c-0.4,0.3-0.9,0.5-1.4,0.8L139.7,141.4z M145.6,150.8l-11.9,5.4
			c-2.6,1.2-5.6,0-6.7-2.5c-1.2-2.6,0-5.6,2.5-6.7l11.9-5.4c0.7-0.3,1.4-0.5,2.1-0.5c1.9,0,3.8,1.1,4.6,3
			C149.3,146.7,148.2,149.7,145.6,150.8z"/>
		<path class="st0" d="M138.9,136.1l-9.9,4.5c0.7,0.4,1.4,0.8,2.1,1.1c1.3,0.5,2.6,0.7,4,0.7c1.6,0,3.1-0.3,4.6-1l8.4-3.8
			c0.5-0.2,0.9-0.5,1.4-0.8C146.4,134.9,142.5,134.5,138.9,136.1z"/>
		<path class="st0" d="M136.2,161.7c-1.5,0.7-3,1-4.6,1c-1,0-2-0.1-2.9-0.4c-0.2,0.4-0.5,0.9-0.7,1.4c-0.4,1.1-0.6,2.2-0.7,3.4h3.3
			l1,6.5l4.9,3.2l1,0.6l5.1-2v2.7c0,0,0.1,0,0.1,0l5.7-2.6c2.6-1.2,4.5-3.3,5.5-5.9c1-2.7,0.9-5.5-0.2-8.1l-0.4-1
			c-0.9-2-2.4-3.6-4.2-4.7c-0.3,0.2-0.7,0.4-1,0.5L136.2,161.7z M148.3,167.4c-0.4,1.1-1.3,2.1-2.4,2.6l-5.7,2.6
			c-1.1,0.5-2.3,0.5-3.5,0.1c-1.1-0.4-2.1-1.3-2.6-2.4l-0.4-1c-0.5-1.1-0.5-2.3-0.1-3.5c0.4-1.1,1.3-2.1,2.4-2.6l5.7-2.6
			c0.6-0.3,1.2-0.4,1.9-0.4c0.5,0,1.1,0.1,1.6,0.3c1.1,0.4,2.1,1.3,2.6,2.4l0.4,1C148.7,165.1,148.7,166.3,148.3,167.4z"/>
		<path class="st0" d="M139.2,155.2l-5.7,2.6c-2.1,0.9-3.8,2.5-4.9,4.5c1,0.3,2,0.4,2.9,0.4c1.6,0,3.1-0.3,4.6-1l11.9-5.4
			c0.3-0.2,0.7-0.3,1-0.5C146.2,154.1,142.5,153.7,139.2,155.2z"/>
		<path class="st0" d="M76.9,219.2c-2.2,1.1-4.2,1.7-6.5,2.4c-2.6,0.8-5.6,1.7-9.6,3.6c-6.1,2.8-11.7,6.3-16.9,10.6
			c-1.3,1.1-1.5,3-0.4,4.2c0.6,0.7,1.5,1.1,2.3,1.1c0.7,0,1.4-0.2,1.9-0.7c4.8-4,10-7.2,15.6-9.8c3.7-1.7,6.5-2.5,8.9-3.3
			c2.4-0.7,4.8-1.5,7.5-2.8c5.5-2.8,12.6-7.6,18.7-20.5c0.2-0.5,0.3-0.9,0.3-1.4h-6.3C87.1,212.9,81.6,216.8,76.9,219.2z"/>
		<path class="st0" d="M56.9,141.4c0.5-0.4,1.8-4.5,3.1-8.6v8.6c0.5-2.7,1-5,1.5-7c1.6-7.1,2.8-12.2,0-22.9
			c-0.3-1.3-0.9-2.9-1.5-4.6v6.8l-6-9.8v-7.6c-2.4-2.7-5.1-4.5-8.1-4c-8.4,1.2-8.9,7.8-9.4,14.8c-0.4,5.5-0.9,12.3-4.1,20.7
			c-3.6,9.5-6.8,14-9.5,17.9c-3.2,4.6-6,8.5-8,17.6c-0.9,3.9-1.2,7.2-1.5,10.4c-0.6,5.6-1,10.5-4.3,17.3c-2.4,5-5.2,9.8-8.4,14.3
			c-1,1.4-0.7,3.2,0.7,4.2c0.5,0.4,1.1,0.6,1.8,0.6c0.9,0,1.9-0.4,2.5-1.3c3.4-4.8,6.4-9.9,9-15.2c3.7-7.8,4.3-13.4,4.9-19.3
			c0.3-3,0.6-6.1,1.4-9.7c1.8-8,4-11.1,7-15.5c2.8-4,6.3-9.1,10.2-19.3c3.5-9.3,4.1-16.9,4.5-22.4c0.6-7.9,1-8.9,4.3-9.3
			c0.3,0,1.8,0.6,4.2,4.1c2,3,3.8,7.1,4.8,10.7c2.4,9.2,1.5,13.3-0.1,20c-0.5,2.3-1.1,4.8-1.6,7.9c0,0.2,0,0.3,0,0.5l0.1,20.8v-19.6
			C55.1,142.3,56.4,141.8,56.9,141.4z"/>
		<polygon class="st0" points="60,167.1 60,167.1 60,162.2 		"/>
		<path class="st0" d="M153.4,112.3c5.6-2.5,8.1-9.1,5.6-14.7c-2.5-5.6-9.1-8.1-14.7-5.6l-1.6,0.7v6.6l4.1-1.8
			c2.6-1.2,5.6,0,6.7,2.5c0.6,1.2,0.6,2.6,0.1,3.9c-0.5,1.3-1.4,2.3-2.7,2.8l-8.3,3.7v5.8c0.6,0,1.2-0.1,1.7,0
			c0.2-0.1,0.4-0.1,0.6-0.2L153.4,112.3z"/>
		<path class="st0" d="M142.6,116.4v0.5c0.6-0.1,1.2-0.3,1.7-0.5C143.8,116.3,143.2,116.3,142.6,116.4z"/>
		<path class="st1" d="M129.1,173.6H60l0,14.9c0,0.2,0,0.4-0.1,0.6c0.1,4.1,3.4,7.4,7.6,7.4H129c4.2,0,7.6-3.4,7.6-7.6v-10.2
			c-0.7-0.1-1.3-0.3-2-0.5C132.3,177.4,130.4,175.8,129.1,173.6z M103.6,187.9H93c-1.7,0-3-1.3-3-3c0-1.7,1.3-3,3-3h10.6
			c1.7,0,3,1.3,3,3C106.6,186.6,105.3,187.9,103.6,187.9z"/>
		<path class="st0" d="M103.6,181.9H93c-1.7,0-3,1.3-3,3c0,1.7,1.3,3,3,3h10.6c1.7,0,3-1.3,3-3C106.6,183.2,105.3,181.9,103.6,181.9
			z"/>
		<path class="st0" d="M134.6,178.3c0.6,0.2,1.3,0.4,2,0.5v-2.1l-4.9-3.2h-2.5C130.4,175.8,132.3,177.4,134.6,178.3z"/>
		<path class="st0" d="M60,173.6L60,173.6l0,15.4c0,0.1,0,0.1,0,0.2c0-0.2,0.1-0.4,0.1-0.6L60,173.6z"/>
		<path class="st0" d="M136.6,178.8V189c0,4.2-3.4,7.6-7.6,7.6H67.6c-4.1,0-7.5-3.3-7.6-7.4c-0.3,1.4-1.5,2.4-2.9,2.4c0,0,0,0,0,0
			c-1.7,0-3-1.3-3-3L54,162.2v5.4v1V189c0,7.5,6.1,13.6,13.6,13.6h24.7c0.2-0.4,0.4-0.8,0.6-1.2c0.7-1.5,2.5-2.1,4-1.4
			c1.1,0.5,1.7,1.5,1.7,2.6H129c7.5,0,13.6-6.1,13.6-13.6v-10.9c-1.4,0.6-2.8,0.9-4.2,0.9C137.8,179,137.2,178.9,136.6,178.8z"/>
		<path class="st0" d="M59.9,141.6l0.1,20.6v-20.9C60,141.4,59.9,141.5,59.9,141.6z"/>
		<path class="st0" d="M60,173.6h69.1c-0.2-0.3-0.3-0.6-0.4-0.9l-0.4-1c-0.7-1.5-1-3.1-0.9-4.7H60L60,173.6z"/>
		<path class="st0" d="M128.3,171.8l0.4,1c0.1,0.3,0.3,0.6,0.4,0.9h2.5l-1-6.5h-3.3C127.3,168.7,127.6,170.3,128.3,171.8z"/>
		<path class="st0" d="M137.5,177.4l-1-0.6v2.1c0.6,0.1,1.2,0.2,1.8,0.2c1.4,0,2.9-0.3,4.2-0.9v-2.7L137.5,177.4z"/>
		<path class="st0" d="M96.9,200c-1.5-0.7-3.3-0.1-4,1.4c-0.2,0.4-0.4,0.8-0.6,1.2h6.3C98.5,201.5,97.9,200.5,96.9,200z"/>
		<path class="st0" d="M57,191.6C57,191.6,57.1,191.6,57,191.6c1.5,0,2.7-1,2.9-2.4c0-0.1,0-0.1,0-0.2v-15.4h0l0-6.5h0v-4.8
			l-0.1-20.6c0-0.1,0-0.2,0.1-0.3v-8.6c-1.2,4.1-2.6,8.2-3.1,8.6c-0.5,0.4-1.8,0.9-3,1.3v19.6l0.1,26.4
			C54,190.2,55.4,191.6,57,191.6z"/>
		<path class="st0" d="M128.4,46.8c4.5,0,8.2,3.7,8.2,8.2v63.4l2.3-1.1c0.2-0.1,0.4-0.2,0.6-0.3c-0.1,0-0.2,0-0.3,0l-2.7-0.3V95.5
			l6-2.7V55c0-7.8-6.4-14.2-14.2-14.2h-23.5v6H128.4z"/>
		<path class="st0" d="M60,55c0-4.5,3.7-8.2,8.2-8.2h22.2v-6H68.1C60.3,40.8,54,47.1,54,55v41.3c2.5,2.9,4.6,7,6,10.6V55z"/>
		<path class="st0" d="M139.6,117c-0.2,0.1-0.4,0.2-0.6,0.3l-2.3,1.1v3.7l6-2.3v-2.9c-0.7,0.1-1.5,0.2-2.2,0.2
			C140.1,117.1,139.8,117.1,139.6,117z"/>
		<path class="st0" d="M60,113.6v-6.8c-1.4-3.6-3.5-7.7-6-10.6v7.6L60,113.6z"/>
		<path class="st0" d="M136.6,116.8l2.7,0.3c0.1,0,0.2,0,0.3,0c1-0.4,2-0.6,3-0.7v-5.8V99.4v-6.6l-6,2.7V116.8z"/>
		<path class="st0" d="M140.4,117.1c0.7,0,1.5-0.1,2.2-0.2v-0.5c-1,0.1-2.1,0.3-3,0.7C139.8,117.1,140.1,117.1,140.4,117.1z"/>
	</g>
	<path class="st0" d="M123.7,92H72.9c-2.6,0-4.8-2.2-4.8-4.8V76.9c0-2.7,2.2-4.8,4.8-4.8h11.8c0.6,0,1,0.4,1,1s-0.4,1-1,1H72.9
		c-1.5,0-2.8,1.3-2.8,2.8v10.3c0,1.6,1.3,2.8,2.8,2.8h50.8c1.5,0,2.8-1.3,2.8-2.8V76.9c0-1.6-1.3-2.8-2.8-2.8h-12.5
		c-0.6,0-1-0.4-1-1s0.4-1,1-1h12.5c2.6,0,4.8,2.2,4.8,4.8v10.3C128.5,89.8,126.3,92,123.7,92z"/>
	<g>
		<path class="st0" d="M9.2,10.8l-5.2-7C3.7,3.3,3.6,2.8,3.6,2.3c0-0.7,0.2-1.3,0.7-1.7C4.7,0.2,5.3,0,6,0c0.8,0,1.5,0.4,2.1,1.2
			l4,5.6l4-5.6C16.5,0.4,17.2,0,18.1,0c0.7,0,1.3,0.2,1.7,0.6c0.5,0.4,0.7,1,0.7,1.7c0,0.5-0.2,1-0.5,1.4l-5.2,7l6.3,8.5
			c0.4,0.5,0.5,1,0.5,1.6c0,0.7-0.2,1.2-0.7,1.6c-0.5,0.4-1.1,0.6-1.8,0.6c-0.8,0-1.5-0.4-2-1.1L12,14.8l-5.2,7.3
			c-0.5,0.7-1.2,1.1-2,1.1c-0.7,0-1.3-0.2-1.7-0.6c-0.5-0.4-0.7-1-0.7-1.6c0-0.6,0.2-1.1,0.5-1.6L9.2,10.8z"/>
		<path class="st0" d="M28.8,10.8l-5.2-7c-0.3-0.4-0.5-0.9-0.5-1.4c0-0.7,0.2-1.3,0.7-1.7c0.4-0.4,1-0.6,1.7-0.6
			c0.8,0,1.5,0.4,2.1,1.2l4,5.6l4-5.6C36.1,0.4,36.8,0,37.6,0c0.7,0,1.3,0.2,1.7,0.6c0.5,0.4,0.7,1,0.7,1.7c0,0.5-0.2,1-0.5,1.4
			l-5.2,7l6.3,8.5c0.4,0.5,0.5,1,0.5,1.6c0,0.7-0.2,1.2-0.7,1.6c-0.5,0.4-1.1,0.6-1.8,0.6c-0.8,0-1.5-0.4-2-1.1l-5.2-7.3l-5.2,7.3
			c-0.5,0.7-1.2,1.1-2,1.1c-0.7,0-1.3-0.2-1.7-0.6c-0.5-0.4-0.7-1-0.7-1.6c0-0.6,0.2-1.1,0.5-1.6L28.8,10.8z"/>
		<path class="st0" d="M48.3,10.8l-5.2-7c-0.3-0.4-0.5-0.9-0.5-1.4c0-0.7,0.2-1.3,0.7-1.7c0.4-0.4,1-0.6,1.7-0.6
			c0.8,0,1.5,0.4,2.1,1.2l4,5.6l4-5.6C55.6,0.4,56.3,0,57.1,0c0.7,0,1.3,0.2,1.7,0.6c0.5,0.4,0.7,1,0.7,1.7c0,0.5-0.2,1-0.5,1.4
			l-5.2,7l6.3,8.5c0.4,0.5,0.5,1,0.5,1.6c0,0.7-0.2,1.2-0.7,1.6c-0.5,0.4-1.1,0.6-1.8,0.6c-0.8,0-1.5-0.4-2-1.1l-5.2-7.3l-5.2,7.3
			c-0.5,0.7-1.2,1.1-2,1.1c-0.7,0-1.3-0.2-1.7-0.6c-0.5-0.4-0.7-1-0.7-1.6c0-0.6,0.2-1.1,0.5-1.6L48.3,10.8z"/>
		<path class="st0" d="M76.4,10.8l-5.2-7c-0.3-0.4-0.5-0.9-0.5-1.4c0-0.7,0.2-1.3,0.7-1.7c0.4-0.4,1-0.6,1.7-0.6
			c0.8,0,1.5,0.4,2.1,1.2l4,5.6l4-5.6C83.7,0.4,84.4,0,85.2,0c0.7,0,1.3,0.2,1.7,0.6c0.5,0.4,0.7,1,0.7,1.7c0,0.5-0.2,1-0.5,1.4
			l-5.2,7l6.3,8.5c0.4,0.5,0.5,1,0.5,1.6c0,0.7-0.2,1.2-0.7,1.6c-0.5,0.4-1.1,0.6-1.8,0.6c-0.8,0-1.5-0.4-2-1.1l-5.2-7.3L74,22.1
			c-0.5,0.7-1.2,1.1-2,1.1c-0.7,0-1.3-0.2-1.7-0.6c-0.5-0.4-0.7-1-0.7-1.6c0-0.6,0.2-1.1,0.5-1.6L76.4,10.8z"/>
		<path class="st0" d="M96,10.8l-5.2-7c-0.3-0.4-0.5-0.9-0.5-1.4c0-0.7,0.2-1.3,0.7-1.7C91.4,0.2,92,0,92.7,0c0.8,0,1.5,0.4,2.1,1.2
			l4,5.6l4-5.6c0.6-0.8,1.2-1.2,2.1-1.2c0.7,0,1.3,0.2,1.7,0.6c0.5,0.4,0.7,1,0.7,1.7c0,0.5-0.2,1-0.5,1.4l-5.2,7l6.3,8.5
			c0.4,0.5,0.5,1,0.5,1.6c0,0.7-0.2,1.2-0.7,1.6c-0.5,0.4-1.1,0.6-1.8,0.6c-0.8,0-1.5-0.4-2-1.1l-5.2-7.3l-5.2,7.3
			c-0.5,0.7-1.2,1.1-2,1.1c-0.7,0-1.3-0.2-1.7-0.6c-0.5-0.4-0.7-1-0.7-1.6c0-0.6,0.2-1.1,0.5-1.6L96,10.8z"/>
		<path class="st0" d="M115.5,10.8l-5.2-7c-0.3-0.4-0.5-0.9-0.5-1.4c0-0.7,0.2-1.3,0.7-1.7c0.4-0.4,1-0.6,1.7-0.6
			c0.8,0,1.5,0.4,2.1,1.2l4,5.6l4-5.6c0.6-0.8,1.2-1.2,2.1-1.2c0.7,0,1.3,0.2,1.7,0.6c0.5,0.4,0.7,1,0.7,1.7c0,0.5-0.2,1-0.5,1.4
			l-5.2,7l6.3,8.5c0.4,0.5,0.5,1,0.5,1.6c0,0.7-0.2,1.2-0.7,1.6c-0.5,0.4-1.1,0.6-1.8,0.6c-0.8,0-1.5-0.4-2-1.1l-5.2-7.3l-5.2,7.3
			c-0.5,0.7-1.2,1.1-2,1.1c-0.7,0-1.3-0.2-1.7-0.6c-0.5-0.4-0.7-1-0.7-1.6c0-0.6,0.2-1.1,0.5-1.6L115.5,10.8z"/>
		<path class="st0" d="M143.6,10.8l-5.2-7c-0.3-0.4-0.5-0.9-0.5-1.4c0-0.7,0.2-1.3,0.7-1.7c0.4-0.4,1-0.6,1.7-0.6
			c0.8,0,1.5,0.4,2.1,1.2l4,5.6l4-5.6c0.6-0.8,1.2-1.2,2.1-1.2c0.7,0,1.3,0.2,1.7,0.6c0.5,0.4,0.7,1,0.7,1.7c0,0.5-0.2,1-0.5,1.4
			l-5.2,7l6.3,8.5c0.4,0.5,0.5,1,0.5,1.6c0,0.7-0.2,1.2-0.7,1.6c-0.5,0.4-1.1,0.6-1.8,0.6c-0.8,0-1.5-0.4-2-1.1l-5.2-7.3l-5.2,7.3
			c-0.5,0.7-1.2,1.1-2,1.1c-0.7,0-1.3-0.2-1.7-0.6c-0.5-0.4-0.7-1-0.7-1.6c0-0.6,0.2-1.1,0.5-1.6L143.6,10.8z"/>
		<path class="st0" d="M163.2,10.8l-5.2-7c-0.3-0.4-0.5-0.9-0.5-1.4c0-0.7,0.2-1.3,0.7-1.7c0.4-0.4,1-0.6,1.7-0.6
			c0.8,0,1.5,0.4,2.1,1.2l4,5.6l4-5.6c0.6-0.8,1.2-1.2,2.1-1.2c0.7,0,1.3,0.2,1.7,0.6c0.5,0.4,0.7,1,0.7,1.7c0,0.5-0.2,1-0.5,1.4
			l-5.2,7l6.3,8.5c0.4,0.5,0.5,1,0.5,1.6c0,0.7-0.2,1.2-0.7,1.6c-0.5,0.4-1.1,0.6-1.8,0.6c-0.8,0-1.5-0.4-2-1.1l-5.2-7.3l-5.2,7.3
			c-0.5,0.7-1.2,1.1-2,1.1c-0.7,0-1.3-0.2-1.7-0.6c-0.5-0.4-0.7-1-0.7-1.6c0-0.6,0.2-1.1,0.5-1.6L163.2,10.8z"/>
		<path class="st0" d="M182.7,10.8l-5.2-7c-0.3-0.4-0.5-0.9-0.5-1.4c0-0.7,0.2-1.3,0.7-1.7c0.4-0.4,1-0.6,1.7-0.6
			c0.8,0,1.5,0.4,2.1,1.2l4,5.6l4-5.6c0.6-0.8,1.2-1.2,2.1-1.2c0.7,0,1.3,0.2,1.7,0.6c0.5,0.4,0.7,1,0.7,1.7c0,0.5-0.2,1-0.5,1.4
			l-5.2,7l6.3,8.5c0.4,0.5,0.5,1,0.5,1.6c0,0.7-0.2,1.2-0.7,1.6c-0.5,0.4-1.1,0.6-1.8,0.6c-0.8,0-1.5-0.4-2-1.1l-5.2-7.3l-5.2,7.3
			c-0.5,0.7-1.2,1.1-2,1.1c-0.7,0-1.3-0.2-1.7-0.6c-0.5-0.4-0.7-1-0.7-1.6c0-0.6,0.2-1.1,0.5-1.6L182.7,10.8z"/>
	</g>
</g>
</svg>
