<?xml version="1.0" encoding="utf-8"?>
<!-- Generator: Adobe Illustrator 25.2.3, SVG Export Plug-In . SVG Version: 6.00 Build 0)  -->
<svg version="1.1" id="Layer_1" xmlns="http://www.w3.org/2000/svg" xmlns:xlink="http://www.w3.org/1999/xlink" x="0px" y="0px"
	 viewBox="0 0 435 380.1" style="enable-background:new 0 0 435 380.1;" xml:space="preserve">
<style type="text/css">
	.st0{fill:#00A855;}
	.st1{fill:#FAED33;}
	.st2{fill-rule:evenodd;clip-rule:evenodd;fill:#FFF100;}
	.st3{fill:#FFF100;}
</style>
<g>
	<g>
		<path class="st0" d="M406.3,242.8H28.7c-11.3,0-20.5-9.2-20.5-20.5V129h418.6v93.4C426.8,233.7,417.6,242.8,406.3,242.8z"/>
		<g>
			<g>
				<g>
					<path class="st0" d="M62.7,116.9h127.4V97c0,0-13.2,0.1-17.7,0c-17-0.8-52.7-4.9-66.6-13.5c-3.2-1.9-4.2-8.2-4.2-8.2l-28.4,0.1
						c0,0-3.8,0-7.9,5c-1,1.1-2.6,5.1-2.6,5.1V116.9z"/>
					<path class="st0" d="M378,116.9H250.5V97c0,0,13.2,0.1,17.7,0c17-0.8,52.7-4.9,66.6-13.5c3.2-1.9,4.2-8.2,4.2-8.2l28.4,0.1
						c0,0,3.8,0,7.9,5c1,1.1,2.6,5.1,2.6,5.1V116.9z"/>
				</g>
				<path class="st1" d="M306.9,68.1l3.1-14.2c0,0-13.5,12.7-31.2,21.1c-13.1,6.3-29.9,8.8-37.3,9.6c-1.3,0.1-2.4,0.3-3.3,0.4v-8.8
					c6.4-1.5,13.9-3.5,18.6-5c9.6-3.1,27.7-12.2,31.2-21.7c3.6-9.5-5.1-16.3-8.9-17c-3.8-0.7-12.4,0.4-12.4,0.4s4-5.6,3.5-10.6
					c-0.6-5-4.5-12.2-12-12.2c-7.5,0-13.5,1.5-19.3,11.1s-11.8,26-13.6,33.5c-1.1,4.7-3.2,12.8-4.6,18.1c-1.4-5.3-3.5-13.4-4.6-18.1
					c-1.8-7.5-7.8-23.9-13.6-33.5c-5.8-9.6-12-11.1-19.3-11.1c-7.4,0-11.3,7.4-12,12.2c-0.6,5,3.5,10.6,3.5,10.6s-8.6-1.1-12.4-0.4
					c-3.8,0.7-12.5,7.5-8.9,17c3.6,9.5,21.7,18.6,31.2,21.7c4.5,1.5,11.5,3.2,17.8,4.7v9c-1.1-0.1-2.2-0.3-3.3-0.4
					c-7.4-0.8-24.3-3.3-37.3-9.6c-17.7-8.5-31.2-21.1-31.2-21.1l3.1,14.2l-19.2,7.2c0,0,4.5,1.8,10,3.5c5.6,1.7,22.3,5.3,33.5,7
					c8.9,1.3,34.1,1.4,44.2,1.4v29.6h35.6V87c10.2,0,35.3-0.1,44.2-1.4c11.3-1.7,28-5.3,33.5-7c5.6-1.7,10-3.5,10-3.5L306.9,68.1z
					 M240.8,41.4c8.2-14.1,10.7-16,17.8-14.2c7.2,1.8,2.2,11,2.2,11s9.6-1.7,10.3,4c0.7,5.8-3.9,11.7-9.7,15.6
					c-6,4-15.9,9.9-22.3,12.1c-6.4,2.2-10.4,3.8-13.1,3.8C227.7,69.8,232.7,55.4,240.8,41.4z M180.1,58.1c-6-4-10.6-9.7-9.7-15.6
					c0.7-5.8,10.3-4,10.3-4s-5-9.2,2.2-11c7.2-1.8,9.6,0.1,17.8,14.2c8.2,14.1,13.1,28.4,14.7,32.4c-2.6,0-6.5-1.5-13.1-3.8
					C196,67.9,186.1,62,180.1,58.1z"/>
			</g>
			<path class="st0" d="M346.3,129H94.5H62.7v48.7v124.4v35.1c0,17.5,14.2,31.7,31.7,31.7h251.8c17.5,0,31.7-14.2,31.7-31.7v-35.1
				V177.7V129H346.3z M364.8,337c0,10.2-8.3,18.5-18.5,18.5H94.5c-10.2,0-18.5-8.3-18.5-18.5V159.2h288.8L364.8,337L364.8,337z"/>
		</g>
		<g>
			<g id="Rounded_Rectangle_12_copy">
				<g>
					<path class="st2" d="M406.2,156.6h-26.8c-3.1,0-5.6,2.5-5.6,5.6s2.5,5.6,5.6,5.6h26.8c3.1,0,5.6-2.5,5.6-5.6
						S409.3,156.6,406.2,156.6z"/>
				</g>
			</g>
			<g>
				<path class="st3" d="M33.1,208.7v-39.9h-4.7c-1.8,0-3.2-0.6-4-1.7c-0.8-1.1-1.4-2.4-1.4-3.9s0.6-2.8,1.5-3.9
					c1-1.1,2.2-1.7,3.9-1.7h11.3c1.7,0,2.9,0.6,3.9,1.5c1,1.1,1.4,2.4,1.4,4v45.4c0,1.9-0.6,3.5-1.7,4.6c-1.1,1.1-2.5,1.7-4.3,1.7
					s-3.2-0.6-4.3-1.7C33.7,212.2,33.1,210.6,33.1,208.7z"/>
				<path class="st3" d="M100.7,212.6c-2.9,1.8-6.3,2.6-10,2.6c-3.8,0-7.1-1-10-2.6c-2.9-1.8-5-4.2-6.5-7.1
					c-1.5-2.9-2.6-6.1-3.3-9.3c-0.7-3.2-1.1-6.5-1.1-10.2c0-3.5,0.4-6.8,1.1-10.2c0.7-3.2,1.8-6.4,3.3-9.3c1.5-2.9,3.8-5.4,6.5-7.1
					c2.9-1.8,6.3-2.6,10-2.6c3.8,0,7.1,1,10,2.6c2.9,1.8,5,4.2,6.5,7.1s2.6,6.1,3.3,9.3c0.7,3.2,1.1,6.5,1.1,10.2
					c0,3.5-0.4,6.8-1.1,10.2c-0.7,3.2-1.8,6.4-3.3,9.3C105.7,208.4,103.5,210.8,100.7,212.6z M81.9,186c0,12.2,2.9,18.5,8.6,18.5
					c5.7,0,8.6-6.1,8.6-18.5c0-12.4-2.9-18.5-8.6-18.5C84.9,167.5,81.9,173.8,81.9,186z"/>
				<path class="st3" d="M146.3,212.6c-2.9,1.8-6.3,2.6-10,2.6c-3.8,0-7.1-1-10-2.6c-2.9-1.8-5-4.2-6.5-7.1s-2.6-6.1-3.3-9.3
					c-0.7-3.2-1.1-6.5-1.1-10.2c0-3.5,0.4-6.8,1.1-10.2c0.7-3.2,1.8-6.4,3.3-9.3s3.8-5.4,6.5-7.1c2.9-1.8,6.3-2.6,10-2.6
					c3.8,0,7.1,1,10,2.6c2.9,1.8,5,4.2,6.5,7.1s2.6,6.1,3.3,9.3c0.7,3.2,1.1,6.5,1.1,10.2c0,3.5-0.4,6.8-1.1,10.2
					c-0.7,3.2-1.8,6.4-3.3,9.3C151.5,208.4,149.3,210.8,146.3,212.6z M127.7,186c0,12.2,2.9,18.5,8.6,18.5c5.8,0,8.6-6.1,8.6-18.5
					c0-12.4-2.9-18.5-8.6-18.5C130.5,167.6,127.7,173.8,127.7,186z"/>
				<path class="st3" d="M192,212.6c-2.9,1.8-6.3,2.6-10,2.6c-3.8,0-7.1-1-10-2.6c-2.9-1.8-5-4.2-6.5-7.1c-1.5-2.9-2.6-6.1-3.3-9.3
					c-0.7-3.2-1.1-6.5-1.1-10.2c0-3.5,0.4-6.8,1.1-10.2c0.7-3.2,1.8-6.4,3.3-9.3c1.5-2.9,3.8-5.4,6.5-7.1c2.9-1.8,6.3-2.6,10-2.6
					c3.8,0,7.1,1,10,2.6c2.9,1.8,5,4.2,6.5,7.1s2.6,6.1,3.3,9.3c0.7,3.2,1.1,6.5,1.1,10.2c0,3.5-0.4,6.8-1.1,10.2
					c-0.7,3.2-1.8,6.4-3.3,9.3C197.1,208.4,194.9,210.8,192,212.6z M173.3,186c0,12.2,2.9,18.5,8.6,18.5c5.7,0,8.6-6.1,8.6-18.5
					c0-12.4-2.9-18.5-8.6-18.5C176.3,167.5,173.3,173.8,173.3,186z"/>
				<path class="st3" d="M255,212.6c-2.9,1.8-6.3,2.6-10,2.6c-3.8,0-7.1-1-10-2.6c-2.9-1.8-5-4.2-6.5-7.1s-2.6-6.1-3.3-9.3
					c-0.7-3.2-1.1-6.5-1.1-10.2c0-3.5,0.4-6.8,1.1-10.2c0.7-3.2,1.8-6.4,3.3-9.3c1.5-2.9,3.8-5.4,6.5-7.1c2.9-1.8,6.3-2.6,10-2.6
					c3.8,0,7.1,1,10,2.6c2.9,1.8,5,4.2,6.5,7.1s2.6,6.1,3.3,9.3c0.7,3.2,1.1,6.5,1.1,10.2c0,3.5-0.4,6.8-1.1,10.2
					c-0.7,3.2-1.8,6.4-3.3,9.3C260.1,208.4,257.9,210.8,255,212.6z M236.4,186c0,12.2,2.9,18.5,8.6,18.5c5.8,0,8.6-6.1,8.6-18.5
					c0-12.4-2.9-18.5-8.6-18.5C239.3,167.6,236.4,173.8,236.4,186z"/>
				<path class="st3" d="M300.8,212.6c-2.9,1.8-6.3,2.6-10,2.6c-3.8,0-7.1-1-10-2.6c-2.9-1.8-5-4.2-6.5-7.1s-2.6-6.1-3.3-9.3
					c-0.7-3.2-1.1-6.5-1.1-10.2c0-3.5,0.4-6.8,1.1-10.2c0.7-3.2,1.8-6.4,3.3-9.3s3.8-5.4,6.5-7.1c2.9-1.8,6.3-2.6,10-2.6
					c3.8,0,7.1,1,10,2.6c2.9,1.8,5,4.2,6.5,7.1s2.6,6.1,3.3,9.3c0.7,3.2,1.1,6.5,1.1,10.2c0,3.5-0.4,6.8-1.1,10.2
					c-0.7,3.2-1.8,6.4-3.3,9.3C305.8,208.4,303.5,210.8,300.8,212.6z M282,186c0,12.2,2.9,18.5,8.6,18.5c5.8,0,8.6-6.1,8.6-18.5
					c0-12.4-2.9-18.5-8.6-18.5C284.9,167.6,282,173.8,282,186z"/>
				<path class="st3" d="M346.4,212.6c-2.9,1.8-6.3,2.6-10,2.6s-7.1-1-10-2.6c-2.9-1.8-5-4.2-6.5-7.1c-1.5-2.9-2.6-6.1-3.3-9.3
					c-0.7-3.2-1.1-6.5-1.1-10.2c0-3.5,0.4-6.8,1.1-10.2c0.7-3.2,1.8-6.4,3.3-9.3s3.8-5.4,6.5-7.1c2.9-1.8,6.3-2.6,10-2.6
					s7.1,1,10,2.6c2.9,1.8,5,4.2,6.5,7.1s2.6,6.1,3.3,9.3c0.7,3.2,1.1,6.5,1.1,10.2c0,3.5-0.4,6.8-1.1,10.2
					c-0.7,3.2-1.8,6.4-3.3,9.3C351.4,208.4,349.2,210.8,346.4,212.6z M327.6,186c0,12.2,2.9,18.5,8.6,18.5s8.6-6.1,8.6-18.5
					c0-12.4-2.9-18.5-8.6-18.5S327.6,173.8,327.6,186z"/>
				<path class="st3" d="M387.6,208.5v-26.4h-8.1c-1.5,0-2.8-0.4-3.6-1.4c-0.8-0.8-1.4-2.1-1.4-3.6c0-1.4,0.4-2.6,1.4-3.6
					c1-1,2.1-1.4,3.6-1.4H407c1.5,0,2.9,0.4,3.9,1.3c1,0.8,1.5,2.1,1.5,3.8s-0.6,2.9-1.5,3.8c-1,0.8-2.4,1.3-3.9,1.3H399v26.4
					c0,1.9-0.6,3.5-1.5,4.6c-1.1,1.1-2.5,1.8-4.2,1.8c-1.7,0-3.1-0.6-4.2-1.8C388.1,211.9,387.6,210.3,387.6,208.5z"/>
			</g>
		</g>
	</g>
	<g>
		<path class="st0" d="M91.4,280.8c0-0.8,0.3-1.5,0.7-2.1c0.4-0.6,1.1-0.8,1.8-0.8s1.4,0.3,1.8,0.8c0.4,0.6,0.7,1.3,0.7,2.1v4.6
			l5.6-6.4c0.7-0.7,1.4-1.1,2.2-1.1c0.6,0,1.1,0.3,1.5,0.7c0.4,0.4,0.6,1,0.6,1.5c0,0.7-0.3,1.3-1,1.9l-4.7,4.7l6.1,6
			c0.4,0.4,0.7,1,0.7,1.7s-0.3,1.3-0.7,1.7c-0.4,0.4-1,0.7-1.7,0.7s-1.4-0.6-2.4-1.5l-6.1-6.5l0,0v5.3c0,0.8-0.3,1.5-0.7,2.1
			c-0.4,0.6-1.1,0.8-1.8,0.8s-1.4-0.3-1.8-0.8c-0.4-0.6-0.7-1.3-0.7-2.1v-13.2H91.4z"/>
		<path class="st0" d="M115.2,297.4c-2.1,0-3.8-0.6-5-1.5c-1.3-1.1-1.9-2.5-1.9-4.5c0-4.3,3.9-6.5,11.5-6.5v-1.4
			c0-0.8-0.7-1.4-2.2-1.4c-1.1,0-2.1,0.3-3.1,0.8c-0.8,0.6-1.5,0.8-1.8,0.8c-1.5,0-2.2-0.7-2.2-2.1c0-1,0.8-1.8,2.4-2.6
			c1.5-0.7,3.1-1.1,4.6-1.1c4.9,0,7.2,1.9,7.2,5.7v11c0,0.7-0.3,1.4-0.7,1.9s-1.1,0.8-1.8,0.8c-1.3,0-2.1-0.6-2.4-1.8
			C119.1,296.7,117.5,297.4,115.2,297.4z M116.2,293.1c2.5,0,3.8-1.3,3.8-3.8v-0.8c-2.4,0-3.9,0-4.6,0.3c-1.5,0.4-2.2,1.3-2.2,2.5
			C113.1,292.5,114.1,293.1,116.2,293.1z"/>
		<path class="st0" d="M152.6,296.4c-0.4,0.4-1,0.7-1.7,0.7c-0.7,0-1.4-0.6-2.4-1.5l-6.1-6.5h-0.1v5.3c0,0.8-0.3,1.5-0.7,2.1
			c-0.4,0.6-1.1,0.8-1.8,0.8c-0.7,0-1.4-0.3-1.8-0.8c-0.4-0.6-0.7-1.3-0.7-2.1V289h-0.1l-6.1,6.5c-1,1-1.8,1.5-2.4,1.5
			c-0.7,0-1.3-0.3-1.7-0.7c-0.4-0.4-0.7-1-0.7-1.7s0.3-1.3,0.7-1.7l6.1-6l-4.7-4.7c-0.7-0.7-1-1.4-1-1.9s0.1-1.1,0.6-1.5
			c0.4-0.4,1-0.7,1.5-0.7c0.8,0,1.7,0.4,2.2,1.1l5.6,6.4v-4.6c0-0.8,0.3-1.5,0.7-2.1c0.4-0.6,1.1-0.8,1.8-0.8c0.7,0,1.4,0.3,1.8,0.8
			c0.4,0.6,0.7,1.3,0.7,2.1v4.6l5.6-6.4c0.7-0.7,1.4-1.1,2.2-1.1c0.6,0,1.1,0.3,1.5,0.7s0.6,1,0.6,1.5c0,0.7-0.3,1.3-1,1.9l-4.7,4.7
			l6.1,6c0.4,0.4,0.7,1,0.7,1.7C153.3,295.4,153,296,152.6,296.4z"/>
		<path class="st0" d="M174.3,299.5c0,0.8-0.3,1.5-0.7,2.1c-0.4,0.6-1.1,0.8-1.8,0.8c-0.7,0-1.4-0.3-1.8-0.8
			c-0.4-0.6-0.7-1.3-0.7-2.1V297h-10.9v2.5c0,0.8-0.3,1.5-0.7,2.1c-0.4,0.6-1.1,0.8-1.8,0.8c-0.7,0-1.4-0.3-1.8-0.8
			s-0.7-1.3-0.7-2.1v-4.2c0-0.8,0.3-1.5,0.7-2.1s1.1-0.8,1.8-0.8h0.3c0.8-2.9,1.3-6.7,1.3-11.4c0-1.8,0.8-2.8,2.5-2.8h8.9
			c0.7,0,1.4,0.3,1.8,0.8c0.4,0.6,0.7,1.3,0.7,2.1v11.4h0.3c0.7,0,1.4,0.3,1.8,0.8c0.4,0.6,0.7,1.3,0.7,2.1v4H174.3z M166.7,282.4
			h-4.3c-0.1,4.2-0.6,7.7-1.3,10.4h5.6V282.4z"/>
		<path class="st0" d="M174.4,281.5c-0.1-0.4-0.3-0.8-0.3-1.3c0-0.6,0.3-1.1,0.8-1.5c0.6-0.4,1-0.6,1.5-0.6c1.3,0,2.1,0.6,2.5,1.8
			l3.5,9.5l3.8-9.5c0.4-1.3,1.3-1.8,2.5-1.8c0.6,0,1.1,0.1,1.5,0.6c0.6,0.4,0.8,1,0.8,1.5c0,0.6-0.1,1-0.3,1.3l-8.5,21
			c-0.6,1.4-1.4,1.9-2.4,1.9c-0.8,0-1.5-0.3-1.9-0.7c-0.4-0.4-0.7-1-0.7-1.5c0-0.4,0.1-1,0.3-1.5l2.2-5.4L174.4,281.5z"/>
		<path class="st0" d="M214.9,294.5c-1.7,1.9-3.9,2.9-6.5,2.9c-2.4,0-4.3-0.7-6-2.2c-1.5-1.5-2.5-3.3-2.9-5.7h-1.9v4.9
			c0,0.8-0.3,1.5-0.7,2.1c-0.4,0.6-1.1,0.8-1.8,0.8c-0.7,0-1.4-0.3-1.8-0.8c-0.4-0.6-0.7-1.3-0.7-2.1v-13.5c0-0.8,0.3-1.5,0.7-2.1
			c0.4-0.6,1.1-0.8,1.8-0.8c0.7,0,1.4,0.3,1.8,0.8c0.4,0.6,0.7,1.3,0.7,2.1v4.2h2.2c0.6-2.1,1.5-3.8,3.1-5c1.7-1.4,3.5-2.1,5.6-2.1
			c2.6,0,4.7,1,6.5,2.9c1.7,1.9,2.5,4.2,2.5,6.8C217.4,290.3,216.6,292.6,214.9,294.5z M211.4,284.2c-0.7-1.1-1.8-1.7-3.1-1.7
			c-1.3,0-2.4,0.6-3.1,1.7c-0.7,1-1,2.1-1,3.5c0,1.4,0.3,2.5,1,3.5c0.7,1.1,1.7,1.7,3.1,1.7c1.3,0,2.2-0.6,3.1-1.7
			c0.7-1,1-2.1,1-3.5C212.4,286.2,212.1,285.1,211.4,284.2z"/>
		<path class="st0" d="M245.7,294.3c0,0.8-0.3,1.5-0.7,2.1c-0.4,0.6-1.1,0.8-1.8,0.8c-0.7,0-1.4-0.3-1.8-0.8
			c-0.4-0.6-0.7-1.3-0.7-2.1v-4.9h-6.5v4.9c0,0.8-0.3,1.5-0.7,2.1c-0.4,0.6-1.1,0.8-1.8,0.8c-0.7,0-1.4-0.3-1.8-0.8
			c-0.4-0.6-0.7-1.3-0.7-2.1v-13.5c0-0.8,0.3-1.5,0.7-2.1s1.1-0.8,1.8-0.8c0.7,0,1.4,0.3,1.8,0.8c0.4,0.6,0.7,1.3,0.7,2.1v4.2h6.5
			v-4.2c0-0.8,0.3-1.5,0.7-2.1c0.4-0.6,1.1-0.8,1.8-0.8c0.7,0,1.4,0.3,1.8,0.8c0.4,0.6,0.7,1.3,0.7,2.1V294.3z"/>
		<path class="st0" d="M252.6,289.3c0.1,1.3,0.7,2.1,1.7,2.8c0.8,0.6,1.9,0.8,3.1,0.8c1,0,2.1-0.3,3.3-1c1.3-0.7,2.1-1,2.4-1
			c0.6,0,1,0.3,1.4,0.7s0.7,1,0.7,1.5c0,1.1-0.8,2.1-2.6,2.9s-3.6,1.4-5.6,1.4c-2.8,0-5.1-1-6.8-2.8c-1.7-1.8-2.6-4.2-2.6-7
			c0-2.6,0.8-4.9,2.5-6.8c1.8-1.9,3.9-2.9,6.5-2.9s4.7,1,6.5,3.1c1.7,1.8,2.5,3.9,2.5,6.1c0,1.5-0.7,2.2-2.2,2.2h-10.7V289.3z
			 M260.6,286c-0.3-2.5-1.7-3.9-4-3.9c-1.1,0-1.9,0.4-2.8,1.1c-0.7,0.7-1.1,1.7-1.3,2.8H260.6z"/>
		<path class="st0" d="M287,299.5c0,0.8-0.3,1.5-0.7,2.1s-1.1,0.8-1.8,0.8s-1.4-0.3-1.8-0.8c-0.4-0.6-0.7-1.3-0.7-2.1V297h-10.9v2.5
			c0,0.8-0.3,1.5-0.7,2.1c-0.4,0.6-1.1,0.8-1.8,0.8s-1.4-0.3-1.8-0.8s-0.7-1.3-0.7-2.1v-4.2c0-0.8,0.3-1.5,0.7-2.1s1.1-0.8,1.8-0.8
			h0.3c0.8-2.9,1.3-6.7,1.3-11.4c0-1.8,0.8-2.8,2.5-2.8h8.9c0.7,0,1.4,0.3,1.8,0.8c0.4,0.6,0.7,1.3,0.7,2.1v11.4h0.3
			c0.7,0,1.4,0.3,1.8,0.8c0.4,0.6,0.7,1.3,0.7,2.1v4H287z M279.3,282.4H275c-0.1,4.2-0.6,7.7-1.3,10.4h5.6V282.4z"/>
		<path class="st0" d="M292.4,289.3c0.1,1.3,0.7,2.1,1.7,2.8c0.8,0.6,1.9,0.8,3.1,0.8c1,0,2.1-0.3,3.3-1c1.3-0.7,2.1-1,2.4-1
			c0.6,0,1,0.3,1.4,0.7c0.4,0.4,0.7,1,0.7,1.5c0,1.1-0.8,2.1-2.6,2.9s-3.6,1.4-5.6,1.4c-2.8,0-5.1-1-6.8-2.8c-1.7-1.8-2.6-4.2-2.6-7
			c0-2.6,0.8-4.9,2.5-6.8c1.8-1.9,3.9-2.9,6.5-2.9c2.6,0,4.7,1,6.5,3.1c1.7,1.8,2.5,3.9,2.5,6.1c0,1.5-0.7,2.2-2.2,2.2h-10.7V289.3z
			 M300.2,286c-0.3-2.5-1.7-3.9-4-3.9c-1.1,0-1.9,0.4-2.8,1.1c-0.7,0.7-1.1,1.7-1.3,2.8H300.2z"/>
		<path class="st0" d="M309.4,281.1c0-0.8,0.3-1.5,0.7-2.1s1.1-0.8,1.8-0.8h9.3c0.7,0,1.4,0.3,1.8,0.8c0.4,0.6,0.7,1.3,0.7,2.1v13.2
			c0,0.8-0.3,1.5-0.7,2.1c-0.4,0.6-1.1,0.8-1.8,0.8c-0.7,0-1.4-0.3-1.8-0.8c-0.4-0.6-0.7-1.3-0.7-2.1v-11.7h-4.3v5.1
			c0,2.9-0.6,5.3-1.8,7c-1.1,1.5-2.6,2.4-4.6,2.4c-0.7,0-1.3-0.3-1.7-0.7c-0.4-0.4-0.6-1-0.6-1.5c0-1.1,0.6-1.7,1.5-2.1
			c1.4-0.4,2.1-1.8,2.1-4.3V281.1z"/>
		<path class="st0" d="M349,294.5c-1.7,1.9-3.9,2.9-6.5,2.9c-2.4,0-4.3-0.7-6-2.2c-1.5-1.5-2.5-3.3-2.9-5.7h-1.9v4.9
			c0,0.8-0.3,1.5-0.7,2.1s-1.1,0.8-1.8,0.8c-0.7,0-1.4-0.3-1.8-0.8c-0.4-0.6-0.7-1.3-0.7-2.1v-13.5c0-0.8,0.3-1.5,0.7-2.1
			c0.4-0.6,1.1-0.8,1.8-0.8c0.7,0,1.4,0.3,1.8,0.8s0.7,1.3,0.7,2.1v4.2h2.2c0.6-2.1,1.5-3.8,3.1-5c1.7-1.4,3.5-2.1,5.6-2.1
			c2.6,0,4.7,1,6.5,2.9c1.7,1.9,2.5,4.2,2.5,6.8C351.5,290.3,350.7,292.6,349,294.5z M345.6,284.2c-0.7-1.1-1.8-1.7-3.1-1.7
			s-2.4,0.6-3.1,1.7c-0.7,1-1,2.1-1,3.5c0,1.4,0.3,2.5,1,3.5c0.7,1.1,1.7,1.7,3.1,1.7c1.3,0,2.2-0.6,3.1-1.7c0.7-1,1-2.1,1-3.5
			C346.5,286.2,346.1,285.1,345.6,284.2z"/>
	</g>
</g>
</svg>
