<?xml version="1.0" encoding="utf-8"?>
<!-- Generator: Adobe Illustrator 25.2.3, SVG Export Plug-In . SVG Version: 6.00 Build 0)  -->
<svg version="1.1" id="Isolation_Mode" xmlns="http://www.w3.org/2000/svg" xmlns:xlink="http://www.w3.org/1999/xlink" x="0px"
	 y="0px" viewBox="0 0 36 36" style="enable-background:new 0 0 36 36;" xml:space="preserve">
<style type="text/css">
	.st0{fill:#FFFFFF;}
	.st1{fill:#D3E6F2;}
	.st2{fill:#B6D0E5;}
</style>
<g>
	<path class="st0" d="M36,3.6l-5.7,28.7c0,0-0.8,2-3,1L14.2,23.2l-4.8-2.3l-8-2.7c0,0-1.2-0.4-1.4-1.4c-0.1-1,1.4-1.5,1.4-1.5
		l32-12.5C33.4,2.8,36,1.6,36,3.6z"/>
	<path class="st1" d="M13.2,31.9c0,0-0.4,0-0.9-1.5c-0.5-1.5-2.9-9.5-2.9-9.5L28.7,8.6c0,0,1.1-0.7,1.1,0c0,0,0.2,0.1-0.4,0.7
		C28.8,9.9,14.2,23,14.2,23"/>
	<path class="st2" d="M19.2,27.1L14,31.8c0,0-0.4,0.3-0.9,0.1l1-8.8"/>
</g>
</svg>
