<?xml version="1.0" encoding="utf-8"?>
<!-- Generator: Adobe Illustrator 25.2.3, SVG Export Plug-In . SVG Version: 6.00 Build 0)  -->
<svg version="1.1" id="Layer_1" xmlns="http://www.w3.org/2000/svg" xmlns:xlink="http://www.w3.org/1999/xlink" x="0px" y="0px"
	 viewBox="0 0 20.7 37.6" style="enable-background:new 0 0 20.7 37.6;" xml:space="preserve">
<style type="text/css">
	.st0{fill-rule:evenodd;clip-rule:evenodd;fill:#FFFFFF;}
</style>
<path class="st0" d="M20.7,35.9c-0.2-0.7-0.8-1.1-1.5-0.9l-4.5,0.1C25.9,25.3,20.7,1.5,1.4,0c-1.7-0.3-2.1,2.2,0,2.4
	c17.7,1.4,21.3,22.4,11.4,31.4l-0.5-4.9c0-0.2,0-0.3,0-0.5c-0.2-0.6-0.9-1-1.5-0.8s-1,0.9-0.8,1.5l0.5,6.9l0,0
	c0.2,1,1.1,1.7,2.1,1.6l6.8-0.3c0,0,0.1,0,0.1,0c0.7,0,1.2-0.6,1.2-1.3C20.7,36,20.7,35.9,20.7,35.9z"/>
</svg>
